<?xml version="1.0" standalone="no"?>
<!DOCTYPE svg PUBLIC "-//W3C//DTD SVG 20010904//EN"
 "http://www.w3.org/TR/2001/REC-SVG-20010904/DTD/svg10.dtd">
<svg version="1.0" xmlns="http://www.w3.org/2000/svg"
 width="560.000000pt" height="552.000000pt" viewBox="0 0 560.000000 552.000000"
 preserveAspectRatio="xMidYMid meet">

<g transform="translate(0.000000,552.000000) scale(0.100000,-0.100000)"
fill="#000000" stroke="none">
<path d="M2330 5480 c0 -6 7 -10 15 -10 8 0 15 2 15 4 0 2 -7 6 -15 10 -8 3
-15 1 -15 -4z"/>
<path d="M2738 5443 c12 -2 32 -2 45 0 12 2 2 4 -23 4 -25 0 -35 -2 -22 -4z"/>
<path d="M3100 5429 c0 -5 5 -7 10 -4 6 3 10 8 10 11 0 2 -4 4 -10 4 -5 0 -10
-5 -10 -11z"/>
<path d="M2579 5420 c-1 -3 -1 -8 -1 -12 1 -3 -5 -9 -14 -12 -8 -3 -13 -2 -10
3 3 5 -4 11 -16 15 -25 6 -70 -3 -64 -13 4 -6 -29 -10 -116 -14 -20 0 -35 -4
-33 -7 2 -3 -13 -6 -33 -7 -35 -2 -78 -8 -130 -19 -13 -2 -20 -8 -17 -13 5
-10 -44 -25 -53 -16 -3 3 2 5 11 5 9 0 17 5 17 10 0 7 -8 6 -22 -2 -13 -7 -29
-11 -37 -9 -7 1 -10 -2 -6 -8 3 -6 2 -11 -4 -11 -5 0 -18 -3 -28 -6 -15 -5
-15 -4 -3 5 12 9 12 11 1 11 -8 0 -20 -8 -28 -17 -8 -10 -11 -12 -7 -4 5 11 3
13 -10 8 -10 -4 -20 -7 -22 -7 -3 0 -2 -5 2 -11 4 -7 0 -9 -14 -5 -11 4 -23 2
-27 -4 -3 -6 -10 -8 -15 -5 -4 3 -21 -2 -36 -10 -16 -8 -35 -15 -42 -15 -7 0
-10 -4 -7 -10 8 -13 -1 -13 -28 2 -19 10 -20 9 -10 -4 11 -12 8 -17 -13 -27
-15 -6 -29 -9 -32 -7 -2 3 -14 0 -26 -6 -11 -7 -25 -11 -30 -10 -5 2 -6 -3 -3
-11 4 -10 -1 -13 -19 -9 -13 2 -24 0 -24 -5 0 -6 -17 -15 -39 -21 -21 -7 -44
-19 -51 -27 -7 -8 -17 -12 -23 -8 -6 4 -8 0 -4 -9 3 -9 1 -20 -5 -26 -14 -14
-48 3 -48 23 0 7 -5 17 -12 21 -6 4 -8 3 -4 -4 3 -6 1 -14 -5 -18 -6 -3 -15
-1 -19 6 -5 8 -10 8 -14 2 -7 -11 21 -25 34 -17 15 9 23 -16 10 -28 -10 -9
-11 -9 -5 1 6 11 3 12 -13 3 -12 -6 -24 -17 -28 -24 -5 -7 0 -6 12 3 18 14 18
14 5 -3 -7 -9 -19 -17 -25 -16 -23 3 -36 -1 -36 -12 0 -5 5 -7 12 -3 7 4 8 3
4 -5 -4 -6 -12 -9 -17 -6 -5 4 -9 1 -9 -4 0 -6 -5 -11 -11 -11 -5 0 -7 6 -4
13 4 6 0 4 -8 -5 -11 -14 -16 -15 -27 -5 -8 8 -11 8 -7 1 4 -7 0 -15 -9 -18
-8 -3 -12 -11 -8 -17 4 -8 3 -9 -4 -5 -7 4 -12 2 -12 -5 0 -8 -4 -8 -16 1 -8
8 -14 9 -12 4 4 -14 -40 -67 -50 -60 -12 7 -44 -28 -35 -38 4 -4 -1 -4 -10 0
-12 4 -17 2 -15 -7 2 -7 -4 -13 -12 -14 -8 0 -20 -11 -27 -25 -7 -14 -13 -19
-13 -11 0 11 -3 11 -15 1 -8 -7 -12 -17 -8 -23 4 -6 0 -8 -10 -4 -10 4 -16 2
-14 -5 1 -7 -5 -13 -13 -13 -8 0 -14 -6 -13 -12 1 -6 -8 -10 -21 -9 -19 2 -22
-1 -20 -20 1 -13 -7 -30 -19 -41 l-22 -18 19 23 c11 12 15 22 11 22 -5 0 -20
-10 -33 -22 l-25 -23 12 22 c6 12 16 25 21 28 6 3 10 11 10 18 0 6 -7 1 -16
-11 -17 -24 -39 -25 -39 -2 0 15 -32 23 -41 9 -3 -5 0 -9 5 -9 6 0 11 -5 11
-11 0 -5 -4 -7 -10 -4 -5 3 -7 0 -4 -8 2 -7 0 -26 -5 -40 -6 -15 -8 -27 -6
-27 3 0 10 12 15 26 9 22 13 24 25 14 22 -18 19 -28 -15 -49 -16 -10 -28 -20
-25 -23 3 -2 -11 -17 -30 -32 -19 -16 -35 -33 -35 -39 0 -5 10 -2 22 9 14 12
18 13 10 3 -6 -9 -9 -19 -6 -22 8 -8 -32 0 -48 9 -7 4 -8 3 -4 -4 4 -6 0 -23
-9 -36 -9 -14 -18 -33 -20 -43 -1 -10 -7 -17 -13 -16 -5 1 -16 -4 -22 -13 -11
-12 -10 -13 6 -8 14 5 13 2 -5 -11 -18 -14 -20 -19 -10 -27 11 -8 11 -9 -1 -5
-8 2 -15 10 -15 17 0 7 -6 14 -13 16 -7 1 -8 0 -3 -2 5 -3 7 -14 4 -24 -5 -20
-18 -26 -26 -12 -2 4 -3 2 -1 -5 1 -6 -3 -19 -11 -29 -8 -12 -10 -23 -4 -30 6
-7 3 -16 -8 -25 -16 -13 -17 -12 -5 3 8 9 9 19 4 22 -9 5 -24 -16 -26 -37 -1
-4 -5 -11 -11 -15 -5 -4 -17 -16 -25 -26 -13 -18 -13 -19 0 -11 12 7 12 5 -1
-11 -9 -10 -14 -24 -12 -31 2 -6 -1 -14 -6 -18 -7 -4 -8 1 -4 12 10 29 -11 4
-43 -51 -25 -44 -26 -49 -9 -43 15 5 12 0 -8 -18 -15 -14 -36 -25 -45 -25 -13
0 -14 -2 -3 -9 10 -7 11 -13 1 -31 -8 -15 -8 -20 -1 -16 6 4 11 3 11 -1 0 -5
-9 -14 -21 -21 -12 -8 -18 -19 -15 -28 3 -8 2 -13 -3 -10 -5 4 -19 -19 -32
-49 -12 -30 -27 -51 -32 -48 -6 3 -7 1 -4 -4 11 -18 -24 -101 -42 -98 -9 1
-10 0 -3 -2 9 -3 12 -12 7 -26 -4 -12 -8 -29 -9 -37 -1 -9 -4 -20 -8 -25 -5
-9 -20 -62 -22 -77 -1 -3 -4 -10 -8 -14 -5 -4 -8 -17 -8 -29 0 -13 -7 -39 -16
-60 -8 -21 -13 -43 -10 -51 3 -7 1 -16 -4 -19 -6 -4 -10 -15 -10 -26 0 -10 -4
-19 -8 -19 -5 0 -6 -14 -4 -31 3 -18 1 -29 -4 -26 -5 2 -10 -23 -12 -57 -1
-33 -6 -62 -10 -64 -5 -1 -7 -16 -4 -32 2 -16 1 -38 -3 -47 -4 -10 -6 -44 -5
-77 1 -32 -2 -56 -7 -53 -4 3 -7 -57 -5 -134 2 -93 0 -139 -7 -139 -6 0 -11
-19 -10 -42 l1 -43 11 35 10 35 7 -30 c3 -16 3 -44 -1 -62 -4 -18 -3 -33 2
-35 5 -2 10 -36 11 -75 2 -40 6 -73 9 -73 13 0 19 -94 8 -125 -8 -21 -9 -37
-2 -49 9 -17 11 -17 16 -2 4 10 3 15 -3 11 -6 -3 -10 3 -10 14 0 11 4 22 9 25
10 7 25 -60 16 -74 -3 -6 -1 -10 6 -10 6 0 9 -8 6 -20 -3 -11 -2 -20 3 -20 4
0 10 -14 14 -32 4 -23 2 -36 -10 -47 -15 -15 -16 -14 -10 9 6 20 5 22 -4 8 -5
-9 -7 -24 -3 -34 6 -16 7 -16 20 1 7 10 16 16 19 12 4 -4 1 -13 -5 -21 -10
-11 -10 -19 -1 -33 10 -16 10 -16 5 3 -4 15 0 24 11 28 12 4 15 2 11 -9 -4 -8
3 -40 13 -71 11 -32 18 -60 15 -62 -3 -3 -5 0 -5 7 0 7 -5 9 -10 6 -12 -7 -14
-26 -2 -24 23 4 34 -3 28 -17 -5 -14 -4 -15 9 -4 13 11 14 10 9 -5 -6 -13 -4
-16 5 -10 10 5 11 2 6 -14 -4 -12 -2 -21 4 -21 6 0 11 -11 11 -24 0 -14 5 -28
12 -32 7 -5 8 -3 3 6 -5 9 -4 11 4 6 6 -4 9 -12 6 -17 -4 -5 -2 -16 3 -25 8
-14 10 -14 22 1 11 13 10 15 -6 9 -10 -4 -16 -4 -13 0 4 4 16 9 29 11 12 2 44
18 71 36 52 33 77 64 59 72 -6 3 -5 4 2 3 7 -2 12 -9 10 -16 -3 -11 0 -11 12
-1 16 13 40 6 31 -9 -3 -5 -1 -11 4 -14 11 -7 9 13 -2 31 -5 8 0 17 12 25 15
9 17 15 9 25 -8 11 -7 12 7 7 14 -6 16 -4 10 6 -5 9 -4 11 4 6 6 -4 8 -12 5
-18 -5 -7 -2 -8 6 -3 10 6 12 4 7 -8 -3 -10 -2 -17 3 -17 5 0 7 -6 4 -14 -3
-8 -1 -17 4 -20 5 -3 8 6 6 19 -1 14 1 25 5 25 4 0 15 6 26 13 16 13 15 14
-13 9 -34 -5 -45 13 -14 22 10 4 18 17 20 33 1 23 0 25 -9 13 -9 -12 -10 -12
-5 4 8 25 -12 88 -26 80 -6 -4 -8 1 -3 15 4 12 2 27 -3 34 -6 7 -10 14 -10 17
3 17 -14 80 -21 76 -4 -3 -5 9 -3 26 3 17 1 28 -4 25 -5 -3 -10 14 -11 37 -1
24 -7 56 -13 72 -7 16 -13 52 -15 79 -2 28 -8 88 -14 135 -6 47 -12 155 -13
242 -3 134 -1 155 11 145 12 -10 13 -9 4 8 -8 15 -7 46 3 115 8 52 15 109 17
125 1 17 5 33 10 36 4 3 8 30 10 61 1 31 5 52 8 46 4 -5 9 6 13 26 4 20 4 41
0 48 -4 6 -3 8 3 5 13 -8 27 39 17 55 -5 7 -2 8 6 3 10 -6 12 -3 8 13 -4 12
-2 20 3 16 5 -3 9 2 9 11 0 10 5 13 12 9 7 -4 8 -3 4 5 -11 18 2 63 16 55 7
-4 8 -3 4 5 -9 13 2 53 13 47 4 -3 6 11 4 31 -1 20 0 33 4 30 9 -10 45 62 37
75 -4 6 -3 8 4 4 6 -3 13 3 17 14 4 12 11 17 18 13 7 -4 6 1 -2 10 -8 10 -9
17 -3 17 6 0 16 -8 21 -17 6 -10 11 -13 11 -7 0 5 -5 15 -11 21 -9 9 -5 23 14
56 15 24 23 48 19 52 -4 5 -2 5 5 1 12 -6 30 30 24 49 -1 5 1 7 5 3 9 -10 75
83 67 95 -3 6 -1 7 4 4 6 -4 14 1 17 10 4 9 2 20 -5 23 -8 6 -8 9 0 14 6 4 11
2 11 -4 0 -6 5 -8 10 -5 6 4 8 10 6 14 -3 4 0 13 6 21 8 12 9 12 4 -3 -4 -11
-2 -16 5 -11 6 3 9 14 6 24 -3 12 0 17 7 14 7 -3 22 9 34 26 14 18 28 28 35
23 7 -4 6 0 -2 10 -8 10 -11 20 -7 24 3 3 6 1 6 -6 0 -9 4 -9 14 1 8 7 13 18
13 23 -1 6 3 9 10 8 7 -2 17 6 23 17 12 22 1 26 -20 8 -12 -11 -12 -10 -1 4 9
12 22 16 38 13 20 -3 23 -2 13 10 -10 12 -8 17 11 24 32 12 51 -5 25 -24 -18
-13 -18 -14 3 -12 23 1 28 26 9 46 -11 11 -10 14 0 18 6 3 9 10 5 16 -4 7 1 6
11 -2 9 -8 16 -10 14 -5 -2 5 5 20 15 34 11 15 17 19 17 10 0 -13 1 -13 9 0 6
8 7 18 5 22 -3 5 0 7 8 6 8 -2 12 5 11 17 -1 11 0 14 3 7 5 -10 9 -10 20 -1 8
6 12 15 9 19 -3 4 3 14 13 21 15 13 16 12 3 -3 -8 -11 -9 -18 -3 -18 6 0 14 5
17 10 4 6 10 8 14 5 5 -2 7 9 6 25 -1 17 1 33 6 35 4 3 6 -4 4 -15 -2 -11 0
-20 5 -20 5 0 7 -7 4 -15 -9 -23 7 -41 18 -21 7 13 13 14 23 6 10 -8 13 -5 11
14 l-1 25 -22 -21 c-24 -22 -32 -12 -10 11 10 11 9 12 -3 6 -9 -5 -7 1 5 14
11 13 32 30 48 37 15 8 25 19 22 24 -3 6 0 7 8 4 9 -3 21 4 29 15 8 12 18 18
21 14 4 -3 7 0 7 7 0 7 3 10 7 7 3 -4 12 -2 20 4 17 14 17 -2 1 -22 -11 -11
-11 -12 1 -2 7 6 19 10 25 9 6 -2 8 -1 4 1 -14 8 -9 33 7 39 8 4 12 10 9 16
-3 5 -13 4 -22 -4 -15 -12 -16 -11 -2 6 14 17 15 17 34 -5 10 -13 17 -17 14
-9 -6 19 38 54 59 46 14 -6 14 -4 2 11 -8 9 -9 14 -3 10 7 -4 56 16 110 43 55
28 106 48 114 45 8 -4 11 -3 7 1 -10 11 81 46 95 38 7 -5 8 -2 3 6 -6 10 -3
12 13 8 12 -4 20 -2 17 2 -3 5 8 11 25 15 18 4 27 11 24 17 -4 6 -2 8 4 4 6
-3 45 3 87 15 42 11 83 18 91 15 9 -3 12 -1 9 4 -3 6 -3 10 2 11 14 1 46 8 72
15 28 7 40 8 165 20 69 6 78 5 73 -9 -7 -20 16 -29 45 -17 23 9 23 9 2 9 -12
1 -24 8 -28 16 -5 13 17 15 162 15 111 0 162 -4 152 -10 -13 -8 -12 -10 3 -10
9 0 17 4 17 8 0 5 12 7 28 6 220 -22 449 -74 607 -137 55 -22 108 -40 119 -39
10 0 16 -2 12 -5 -3 -3 41 -29 97 -57 56 -28 113 -59 126 -68 23 -16 26 -16
52 -1 21 12 25 20 18 29 -7 9 -5 12 8 9 22 -3 45 14 36 28 -3 6 -1 7 6 3 7 -5
27 4 46 19 20 14 40 23 46 19 8 -4 7 -9 -2 -14 -7 -5 -14 -15 -15 -24 -2 -13
2 -14 17 -5 11 5 17 14 14 19 -3 6 0 7 8 4 8 -3 21 2 30 10 8 8 17 13 19 11 3
-3 5 1 5 9 0 8 -6 12 -14 9 -7 -3 -21 1 -31 8 -15 13 -16 12 -4 -3 19 -24 -5
-35 -26 -13 -10 10 -12 15 -6 11 7 -3 15 1 18 10 3 8 10 13 15 10 5 -3 14 1
21 8 14 18 86 56 93 50 2 -3 2 8 0 23 -2 15 -4 37 -5 48 0 11 -2 14 -5 8 -5
-15 -43 -18 -43 -4 0 6 -29 24 -64 41 -36 16 -66 34 -68 38 -7 15 -109 63
-120 56 -6 -4 -8 -3 -5 3 6 10 -33 33 -57 33 -8 0 -19 6 -25 14 -6 7 -27 16
-46 19 -19 3 -43 13 -52 22 -9 9 -24 14 -35 12 -10 -3 -16 -2 -13 3 7 11 -21
21 -39 14 -8 -3 -23 -1 -33 5 -14 8 -15 11 -3 12 8 0 -7 7 -34 14 -28 8 -54
11 -59 8 -6 -3 -7 -2 -4 4 3 5 -14 15 -41 21 -26 6 -56 14 -67 17 -20 7 -20 6
-1 -9 11 -9 16 -16 10 -16 -14 1 -44 26 -38 33 9 9 -87 26 -130 22 -29 -3 -35
-1 -21 5 14 6 15 9 5 10 -8 1 -22 3 -30 5 -73 16 -137 22 -154 13 -12 -7 -16
-7 -12 0 8 13 -48 23 -107 17 -26 -2 -45 0 -42 5 2 4 -83 7 -190 6 -107 0
-196 -3 -196 -6z m-52 -16 c-3 -3 -12 -4 -19 -1 -8 3 -5 6 6 6 11 1 17 -2 13
-5z m670 -20 c-3 -3 -12 -4 -19 -1 -8 3 -5 6 6 6 11 1 17 -2 13 -5z m593 -164
c-8 -5 -22 -9 -30 -9 -10 0 -8 3 5 9 27 12 43 12 25 0z m510 -264 c0 -2 -8
-10 -17 -17 -16 -13 -17 -12 -4 4 13 16 21 21 21 13z m-3057 -51 c4 -8 1 -17
-5 -21 -7 -5 -8 -2 -3 6 6 10 4 12 -10 6 -15 -5 -16 -4 -5 9 15 19 16 19 23 0z
m672 -35 c-3 -5 -12 -10 -18 -10 -7 0 -6 4 3 10 19 12 23 12 15 0z m2195 4 c0
-8 -19 -13 -24 -6 -3 5 1 9 9 9 8 0 15 -2 15 -3z m-2950 -510 c0 -8 -19 -13
-24 -6 -3 5 1 9 9 9 8 0 15 -2 15 -3z m-296 -385 c-3 -5 -10 -7 -15 -3 -5 3
-7 10 -3 15 3 5 10 7 15 3 5 -3 7 -10 3 -15z m-274 -1853 c0 -3 -4 -8 -10 -11
-5 -3 -10 -1 -10 4 0 6 5 11 10 11 6 0 10 -2 10 -4z m50 -226 c0 -5 -5 -10
-11 -10 -5 0 -7 5 -4 10 3 6 8 10 11 10 2 0 4 -4 4 -10z"/>
<path d="M2358 5393 c6 -2 18 -2 25 0 6 3 1 5 -13 5 -14 0 -19 -2 -12 -5z"/>
<path d="M3720 5270 c-9 -6 -10 -10 -3 -10 6 0 15 5 18 10 8 12 4 12 -15 0z"/>
<path d="M1730 5245 c0 -2 9 -9 20 -15 16 -9 18 -8 14 5 -5 13 -34 22 -34 10z"/>
<path d="M1620 5200 c0 -5 7 -7 15 -4 8 4 15 8 15 10 0 2 -7 4 -15 4 -8 0 -15
-4 -15 -10z"/>
<path d="M1450 5190 c-13 -8 -12 -10 3 -10 9 0 17 5 17 10 0 12 -1 12 -20 0z"/>
<path d="M1561 5164 l-24 -25 26 12 c15 7 24 15 22 20 -3 4 1 10 7 12 7 3 9 6
3 6 -5 0 -21 -11 -34 -25z"/>
<path d="M4057 5149 c7 -7 15 -10 18 -7 3 3 -2 9 -12 12 -14 6 -15 5 -6 -5z"/>
<path d="M4143 5103 c9 -2 15 -9 12 -14 -3 -5 1 -6 10 -2 13 5 14 7 3 14 -7 5
-20 8 -28 8 -11 -1 -10 -3 3 -6z"/>
<path d="M1485 5080 c3 -5 8 -10 11 -10 2 0 4 5 4 10 0 6 -5 10 -11 10 -5 0
-7 -4 -4 -10z"/>
<path d="M2788 5003 c17 -2 32 -7 32 -11 0 -4 15 -7 33 -7 19 0 34 5 34 10 0
6 -30 10 -66 11 -36 1 -51 -1 -33 -3z"/>
<path d="M2901 4994 c0 -11 3 -14 6 -6 3 7 2 16 -1 19 -3 4 -6 -2 -5 -13z"/>
<path d="M2452 4988 c5 -15 28 -23 28 -10 0 5 -7 13 -16 16 -10 4 -14 1 -12
-6z"/>
<path d="M2953 4993 c9 -2 23 -2 30 0 6 3 -1 5 -18 5 -16 0 -22 -2 -12 -5z"/>
<path d="M2390 4980 c0 -6 7 -10 15 -10 8 0 15 2 15 4 0 2 -7 6 -15 10 -8 3
-15 1 -15 -4z"/>
<path d="M2505 4985 c25 -9 107 -12 94 -4 -8 5 -34 8 -59 8 -25 0 -40 -2 -35
-4z"/>
<path d="M3008 4983 c6 -2 18 -2 25 0 6 3 1 5 -13 5 -14 0 -19 -2 -12 -5z"/>
<path d="M3150 4980 l-35 -6 38 -5 c21 -3 40 -2 43 2 7 12 -9 15 -46 9z"/>
<path d="M3068 4973 c7 -3 16 -2 19 1 4 3 -2 6 -13 5 -11 0 -14 -3 -6 -6z"/>
<path d="M2245 4949 c-4 -6 -14 -8 -24 -5 -12 5 -11 2 3 -9 23 -17 52 -20 61
-5 4 7 -3 8 -22 4 -25 -7 -27 -6 -14 9 7 10 11 17 8 17 -3 0 -9 -5 -12 -11z"/>
<path d="M3310 4940 c0 -5 5 -10 11 -10 5 0 7 5 4 10 -3 6 -8 10 -11 10 -2 0
-4 -4 -4 -10z"/>
<path d="M3356 4938 c3 -5 10 -6 15 -3 13 9 11 12 -6 12 -8 0 -12 -4 -9 -9z"/>
<path d="M4340 4939 c0 -5 5 -7 10 -4 6 3 10 8 10 11 0 2 -4 4 -10 4 -5 0 -10
-5 -10 -11z"/>
<path d="M3392 4931 c-11 -7 -11 -9 0 -14 9 -3 15 1 15 9 0 8 -1 14 -1 14 -1
0 -7 -4 -14 -9z"/>
<path d="M2200 4926 c0 -3 9 -10 20 -16 11 -6 20 -8 20 -6 0 3 -9 10 -20 16
-11 6 -20 8 -20 6z"/>
<path d="M3427 4923 c-12 -12 -7 -23 11 -23 13 0 14 2 3 9 -11 7 -11 9 0 14 8
3 9 6 3 6 -6 1 -14 -2 -17 -6z"/>
<path d="M4280 4900 c-8 -5 -10 -10 -5 -10 6 0 17 5 25 10 8 5 11 10 5 10 -5
0 -17 -5 -25 -10z"/>
<path d="M3489 4891 c11 -7 7 -10 -14 -13 -47 -5 -41 -25 8 -29 40 -4 44 -2
43 18 0 11 -4 19 -8 17 -4 -2 -9 0 -13 6 -3 5 -12 10 -18 10 -8 0 -7 -4 2 -9z"/>
<path d="M4370 4892 c0 -5 7 -9 15 -9 8 0 12 4 9 9 -3 4 -9 8 -15 8 -5 0 -9
-4 -9 -8z"/>
<path d="M1110 4881 c0 -6 4 -13 10 -16 6 -3 7 1 4 9 -7 18 -14 21 -14 7z"/>
<path d="M955 4870 c-3 -5 -1 -10 5 -10 6 0 8 -4 5 -10 -4 -6 2 -7 16 -1 13 4
25 13 27 19 5 15 -44 16 -53 2z"/>
<path d="M2068 4873 c7 -3 16 -2 19 1 4 3 -2 6 -13 5 -11 0 -14 -3 -6 -6z"/>
<path d="M4230 4870 c0 -13 11 -13 30 0 12 8 11 10 -7 10 -13 0 -23 -4 -23
-10z"/>
<path d="M1970 4866 c0 -2 8 -10 18 -17 15 -13 16 -12 3 4 -13 16 -21 21 -21
13z"/>
<path d="M3597 4854 c5 -13 44 -27 52 -18 3 3 -5 7 -17 11 -12 3 -20 9 -17 12
2 4 -2 8 -9 8 -8 0 -12 -6 -9 -13z"/>
<path d="M1950 4843 c0 -7 -7 -13 -15 -13 -8 0 -15 -8 -14 -17 0 -12 2 -13 6
-5 4 10 8 10 21 0 10 -8 13 -9 9 -1 -4 6 -3 13 3 15 6 2 6 8 0 18 -6 10 -10
11 -10 3z"/>
<path d="M3530 4819 c0 -5 5 -7 10 -4 6 3 10 8 10 11 0 2 -4 4 -10 4 -5 0 -10
-5 -10 -11z"/>
<path d="M3702 4800 c7 -11 18 -20 25 -20 22 0 14 16 -12 28 -23 11 -24 10
-13 -8z"/>
<path d="M1830 4790 c-8 -5 -10 -10 -5 -10 6 0 3 -5 -5 -10 -9 -6 -10 -10 -3
-10 7 0 17 9 23 20 12 23 11 24 -10 10z"/>
<path d="M3766 4793 c-3 -3 2 -12 12 -20 16 -14 16 -14 0 -9 -23 7 -23 -1 0
-13 15 -8 19 -6 19 7 0 19 -22 44 -31 35z"/>
<path d="M971 4757 c-13 -21 -12 -21 5 -5 10 10 16 20 13 22 -3 3 -11 -5 -18
-17z"/>
<path d="M3820 4760 c-11 -7 -11 -10 -2 -10 8 0 10 -5 6 -12 -4 -7 -4 -10 1
-6 4 4 14 3 22 -4 19 -15 35 3 17 20 -9 8 -14 9 -14 2 0 -6 -5 -8 -10 -5 -6 4
-8 11 -5 16 8 11 4 11 -15 -1z"/>
<path d="M4079 4765 c-1 -3 -3 -9 -4 -15 -1 -5 -3 -12 -4 -15 0 -3 -11 -1 -22
6 -16 8 -20 8 -14 -1 4 -6 0 -19 -8 -28 -16 -19 -19 -52 -4 -52 5 0 6 7 3 16
-3 8 0 22 8 30 19 19 27 18 19 -3 -4 -11 -3 -14 5 -9 7 4 12 3 12 -3 0 -5 -5
-12 -10 -14 -6 -3 -5 -4 2 -3 7 2 13 9 14 17 0 8 3 21 7 29 6 16 6 50 0 50 -1
0 -4 -2 -4 -5z"/>
<path d="M4106 4758 c3 -5 10 -6 15 -3 13 9 11 12 -6 12 -8 0 -12 -4 -9 -9z"/>
<path d="M3680 4729 c0 -5 5 -7 10 -4 6 3 10 8 10 11 0 2 -4 4 -10 4 -5 0 -10
-5 -10 -11z"/>
<path d="M4771 4706 c-10 -12 -8 -13 8 -9 12 3 18 9 15 14 -7 12 -10 11 -23
-5z"/>
<path d="M3943 4693 c4 -3 1 -13 -6 -22 -11 -14 -10 -14 5 -2 16 12 16 31 1
31 -4 0 -3 -3 0 -7z"/>
<path d="M4587 4673 c-4 -3 -2 -12 4 -19 8 -9 4 -17 -16 -30 -14 -9 -24 -23
-21 -30 9 -23 -26 -35 -47 -16 -17 15 -17 15 -11 -1 4 -12 1 -17 -11 -17 -9 0
-14 -4 -11 -9 7 -11 -52 -33 -65 -25 -5 3 -9 2 -8 -3 4 -23 -3 -42 -17 -47
-15 -6 -15 -4 -3 11 13 16 12 17 -3 5 -9 -8 -23 -10 -30 -6 -7 4 -10 3 -5 -1
4 -5 -1 -17 -10 -27 -15 -16 -15 -18 -1 -13 9 4 18 2 21 -2 3 -5 -6 -9 -21 -9
-17 1 -27 -4 -27 -13 0 -8 -7 -16 -15 -18 -12 -4 -12 -3 -1 5 10 7 10 11 1 17
-6 4 -9 13 -7 19 8 21 -19 14 -33 -8 -12 -19 -11 -20 3 -8 10 9 17 10 22 2 3
-5 1 -10 -5 -10 -6 0 -8 -5 -5 -10 4 -6 3 -9 -2 -8 -4 1 -20 -6 -35 -16 -22
-14 -26 -22 -18 -36 6 -11 6 -21 1 -24 -12 -8 -20 4 -14 20 9 23 -7 16 -34
-17 -15 -17 -32 -28 -40 -25 -8 3 -21 -1 -30 -10 -9 -8 -22 -13 -31 -9 -12 4
-12 3 -3 -8 9 -11 8 -17 -2 -26 -8 -6 -16 -8 -20 -5 -9 9 -48 -16 -41 -27 4
-7 -3 -6 -16 1 -13 7 -20 8 -16 2 3 -6 2 -13 -3 -17 -6 -3 -7 -13 -4 -23 4
-11 -2 -8 -17 8 -16 17 -21 19 -17 8 7 -19 -8 -25 -18 -8 -3 6 -11 10 -18 10
-6 0 -3 -6 8 -13 13 -10 15 -16 6 -21 -6 -4 -9 -11 -6 -16 3 -4 -3 -14 -13
-21 -15 -12 -16 -12 -5 1 10 13 8 18 -10 29 -18 11 -20 11 -9 0 10 -11 8 -17
-10 -31 -20 -15 -21 -19 -8 -28 8 -5 11 -10 6 -10 -5 0 -18 7 -27 16 -17 15
-18 15 -14 -5 2 -13 0 -19 -6 -15 -5 3 -21 -1 -34 -10 -15 -10 -26 -12 -30 -6
-3 6 -12 10 -18 10 -7 0 2 -9 18 -21 17 -11 23 -19 15 -17 -8 1 -28 -6 -43
-16 -34 -23 -81 -30 -74 -11 3 7 -6 18 -21 25 l-27 12 20 -23 c11 -12 15 -19
8 -16 -6 4 -14 4 -17 -1 -3 -5 1 -9 9 -10 8 -1 22 -3 30 -4 11 -1 12 -5 4 -14
-17 -21 -86 16 -72 39 3 5 2 7 -4 4 -11 -7 -63 14 -63 25 0 10 -88 59 -109 61
-11 1 -17 7 -14 14 3 7 -2 13 -11 13 -9 0 -19 7 -23 16 -3 8 -12 13 -19 10 -7
-3 -20 4 -28 15 -12 18 -17 19 -38 8 -22 -12 -22 -11 -8 6 14 17 13 18 -4 12
-17 -7 -17 -6 -5 9 13 16 12 16 -11 4 -20 -10 -23 -10 -13 1 10 10 5 17 -25
35 -39 25 -57 30 -47 15 3 -5 0 -13 -6 -17 -7 -4 -9 -3 -5 4 3 6 2 13 -4 17
-6 4 -8 11 -5 16 4 5 1 9 -5 9 -7 0 -10 7 -7 15 4 8 1 17 -5 21 -7 4 -8 3 -4
-4 5 -8 0 -11 -16 -8 -13 2 -22 9 -21 15 2 6 -2 11 -8 11 -5 0 -7 5 -3 12 4 7
3 8 -5 4 -6 -4 -19 -2 -28 6 -9 7 -18 12 -20 11 -10 -8 -23 -1 -17 9 5 7 2 9
-9 5 -12 -4 -15 -1 -12 15 4 20 4 20 -16 2 -16 -14 -19 -15 -14 -2 7 17 -20
32 -37 21 -6 -3 -8 -1 -5 4 7 11 -42 49 -56 45 -5 -1 -5 3 -1 9 5 9 2 10 -10
6 -10 -4 -15 -3 -11 3 8 13 -30 31 -50 24 -9 -4 -14 -12 -11 -20 3 -8 -2 -11
-15 -9 -17 3 -24 -6 -20 -27 2 -12 -17 -10 -24 2 -4 6 -11 7 -17 4 -6 -4 -14
0 -19 7 -6 9 -7 4 -3 -15 5 -22 4 -27 -6 -21 -8 5 -11 4 -6 -3 3 -6 -1 -17
-10 -26 -12 -12 -20 -13 -35 -6 -10 6 -19 8 -19 5 0 -3 -10 -1 -22 5 -21 10
-22 10 -5 -3 19 -16 7 -33 -15 -22 -7 4 -6 1 2 -7 21 -18 24 -39 4 -31 -8 3
-22 -3 -30 -13 -9 -11 -13 -14 -10 -8 3 7 -2 18 -11 25 -12 10 -15 10 -9 1 4
-7 1 -15 -8 -18 -9 -3 -13 -11 -9 -17 3 -5 1 -7 -5 -3 -6 3 -27 -5 -48 -19
-20 -14 -33 -25 -29 -25 4 0 -4 -10 -19 -21 -15 -12 -30 -19 -33 -15 -3 3 -15
-1 -26 -9 -16 -11 -24 -12 -36 -3 -13 10 -14 10 -3 -2 14 -16 16 -44 3 -35 -5
3 -13 1 -16 -5 -5 -8 -11 -8 -19 -1 -18 15 -28 1 -13 -17 9 -13 9 -14 0 -8 -8
4 -13 2 -13 -5 0 -8 -5 -7 -17 2 -12 10 -14 10 -9 1 4 -7 1 -15 -8 -18 -9 -3
-13 -10 -10 -15 3 -5 -3 -6 -12 -2 -13 5 -15 3 -10 -8 4 -8 0 -5 -8 5 -16 20
-16 20 -17 0 -1 -10 -1 -23 0 -27 1 -5 -3 -6 -9 -2 -5 3 -10 0 -10 -7 0 -7 -9
-2 -20 12 -11 14 -20 20 -20 15 0 -6 5 -16 12 -23 9 -9 7 -13 -5 -18 -9 -3
-14 -11 -10 -17 3 -5 1 -7 -5 -3 -6 3 -14 1 -17 -5 -4 -5 -14 -8 -22 -5 -8 3
-11 2 -8 -3 13 -21 -18 -21 -41 0 l-24 22 0 -22 c0 -16 4 -21 14 -18 8 3 20 0
26 -8 9 -11 6 -13 -14 -11 -14 2 -24 -1 -23 -7 1 -6 -8 -16 -20 -22 -13 -7
-21 -15 -18 -18 3 -4 -1 -2 -8 4 -9 8 -7 15 10 29 13 10 23 22 23 26 0 4 -11
-3 -25 -16 -14 -13 -24 -29 -22 -35 3 -9 -24 -42 -40 -47 -5 -2 -8 -8 -7 -13
1 -6 -7 -12 -17 -12 -11 -1 -29 -9 -41 -18 l-23 -17 25 7 c20 5 22 4 9 -4 -9
-6 -27 -12 -39 -14 -12 -2 -38 -16 -58 -32 -19 -16 -33 -24 -29 -18 3 5 0 10
-8 10 -8 0 -13 -5 -12 -10 1 -5 -4 -12 -12 -15 -10 -3 -12 0 -8 12 4 9 1 16
-4 16 -6 0 -9 -9 -6 -20 6 -24 -9 -36 -27 -21 -10 9 -12 4 -11 -24 2 -22 -1
-32 -8 -28 -6 4 -8 0 -4 -10 3 -9 3 -19 -2 -21 -11 -7 -10 26 1 41 6 7 4 14
-3 19 -7 4 -9 3 -6 -2 3 -6 -11 -25 -31 -44 -20 -19 -30 -26 -22 -15 17 22 14
21 -45 -24 -28 -22 -29 -23 -5 -16 24 7 24 7 5 -8 -16 -13 -23 -13 -33 -3 -13
13 -6 50 8 41 4 -3 13 2 20 10 10 12 9 15 -8 15 -12 0 -23 -9 -27 -20 -3 -11
-11 -20 -17 -20 -7 0 -7 -4 0 -13 9 -10 6 -17 -8 -30 -11 -9 -25 -17 -31 -17
-5 0 -7 -4 -4 -10 5 -9 -10 -15 -18 -7 -5 4 -35 -28 -31 -35 2 -4 -1 -10 -7
-14 -7 -4 -9 -3 -6 2 3 6 -4 16 -16 23 -18 11 -20 11 -9 0 17 -18 15 -28 -5
-24 -10 1 -17 8 -15 15 1 6 -2 9 -8 5 -8 -5 -8 -11 0 -20 16 -19 -7 -30 -27
-13 -14 11 -16 11 -8 -2 14 -22 15 -39 3 -47 -6 -3 -8 -1 -5 4 4 6 0 13 -7 16
-10 4 -13 0 -11 -14 2 -12 0 -17 -7 -13 -5 4 -14 0 -19 -7 -6 -10 -9 -8 -9 9
0 26 -12 22 -69 -26 -27 -23 -32 -32 -24 -47 7 -12 13 -14 17 -6 4 6 2 11 -3
11 -21 0 -11 21 17 33 15 6 32 19 39 27 9 11 12 12 13 2 0 -7 -7 -20 -15 -29
-8 -8 -13 -19 -10 -24 4 -5 1 -9 -5 -9 -7 0 -9 7 -6 16 5 14 4 15 -8 5 -8 -7
-13 -20 -11 -29 4 -25 -5 -34 -20 -22 -8 7 -19 9 -25 5 -7 -4 -10 -269 -10
-867 1 -769 -1 -863 -15 -884 -9 -14 -20 -22 -24 -19 -5 2 -14 -2 -21 -11 -7
-8 -20 -12 -29 -9 -12 5 -11 2 3 -14 13 -14 14 -21 5 -27 -7 -4 -10 -3 -5 4 4
6 -1 10 -13 9 -13 -1 -17 -5 -11 -12 6 -7 2 -11 -10 -11 -10 0 -16 4 -14 8 6
9 -68 -39 -76 -50 -12 -16 -53 -46 -46 -34 7 11 4 11 -13 0 -12 -7 -21 -16
-21 -20 0 -4 -9 -12 -21 -18 -15 -9 -24 -8 -37 2 -15 11 -15 11 -5 -2 22 -29
6 -61 -27 -53 -12 3 -22 -3 -30 -17 -7 -13 -8 -20 -2 -16 6 3 13 2 16 -3 4 -6
-7 -8 -24 -6 -16 2 -30 -1 -30 -6 0 -6 -4 -8 -9 -5 -4 3 -7 -5 -6 -17 3 -31 2
-29 30 -61 13 -16 22 -32 19 -37 -3 -5 1 -6 8 -4 10 4 14 -4 13 -29 0 -25 -3
-32 -12 -24 -6 5 -9 17 -7 26 5 15 4 15 -6 -1 -9 -13 -8 -21 4 -32 19 -20 57
-25 75 -11 12 9 13 8 6 -3 -6 -11 -4 -13 8 -8 10 4 14 2 11 -6 -6 -17 66 -108
79 -100 5 3 8 2 5 -3 -3 -5 0 -15 8 -21 9 -9 15 -10 20 -2 5 8 9 8 14 0 5 -9
10 -7 20 4 11 13 10 15 -6 9 -14 -4 -13 -1 6 15 14 11 32 18 40 15 8 -3 11 -2
8 2 -4 4 -3 15 3 26 7 14 14 16 23 9 9 -8 12 -3 10 19 -1 17 2 27 7 24 5 -3 7
-10 4 -15 -4 -5 -1 -9 5 -9 6 0 8 -11 6 -25 -6 -32 -2 -32 39 8 31 31 33 33
12 32 -14 -1 -21 -8 -19 -19 3 -18 -14 -22 -20 -4 -5 13 53 68 70 68 6 0 23
12 38 27 15 15 33 28 41 29 22 4 93 60 85 69 -4 5 -2 6 3 2 6 -3 30 8 54 24
24 16 49 26 55 22 6 -4 6 0 -2 9 -10 13 -9 15 13 13 13 -2 23 1 22 7 -1 6 4
13 12 16 9 3 11 0 6 -8 -5 -9 -4 -11 4 -6 6 4 9 11 7 15 -3 4 9 16 25 26 16
11 28 24 28 30 -1 5 -1 83 0 172 1 129 4 165 16 177 10 10 12 17 5 21 -8 5 -8
11 -1 19 6 7 7 17 3 21 -4 5 -1 5 6 1 9 -5 10 -12 3 -19 -6 -8 -5 -18 4 -30 8
-12 15 -14 20 -8 3 6 0 11 -7 11 -7 0 -1 10 15 21 15 11 25 25 21 30 -8 13 10
11 25 -4 10 -10 12 -9 9 2 -2 7 3 16 11 19 10 3 12 0 8 -11 -3 -9 -1 -19 6
-23 7 -4 9 -4 5 1 -11 12 30 38 45 29 7 -5 7 -1 -2 10 -13 15 -15 16 -23 1 -5
-8 -14 -13 -19 -10 -5 4 -7 10 -5 14 7 11 -38 8 -47 -3 -5 -7 -7 -5 -4 4 2 9
17 15 38 16 53 1 59 3 56 17 -1 6 4 11 11 9 7 -1 22 7 34 18 12 11 25 20 29
20 4 0 10 7 13 16 5 14 4 15 -8 5 -11 -9 -15 -7 -20 14 -5 18 -15 27 -37 32
-22 4 -27 8 -17 14 10 7 9 9 -4 9 -10 0 -18 4 -18 9 0 10 -39 27 -52 23 -5 -1
-7 1 -5 6 1 4 -2 8 -6 9 -5 1 -15 10 -24 20 -8 10 -11 11 -7 3 6 -11 2 -10
-13 2 -23 21 -38 24 -27 6 5 -8 1 -8 -12 2 -30 22 -30 24 -10 16 19 -6 19 -6
3 11 -15 17 -16 68 -17 516 l0 496 25 17 c14 9 22 21 18 27 -3 6 -1 7 5 3 15
-9 55 18 44 30 -4 4 2 2 12 -6 11 -8 17 -10 13 -3 -10 17 13 28 25 12 7 -11 8
-10 6 3 -2 9 6 24 17 33 11 9 14 13 6 9 -9 -5 -12 -3 -7 5 4 6 12 9 17 6 12
-8 61 30 51 39 -3 4 2 4 12 0 15 -6 17 -4 11 6 -5 8 -4 11 2 7 6 -4 29 7 52
24 24 17 47 27 54 22 8 -5 8 -2 -1 9 -10 13 -10 18 -1 24 8 4 9 3 5 -4 -4 -7
-4 -12 1 -12 13 1 58 38 59 49 1 6 2 16 3 21 0 6 6 10 12 10 8 0 8 -5 -1 -15
-7 -8 -10 -15 -6 -15 10 0 63 35 65 43 0 4 3 7 7 6 3 0 16 7 30 16 13 9 28 14
32 11 4 -2 9 4 9 15 1 12 -2 17 -10 12 -7 -3 -3 3 7 15 11 12 24 22 29 22 6 0
3 -6 -8 -13 -10 -8 -14 -17 -8 -20 5 -3 35 12 67 34 32 22 60 38 62 36 6 -6
-36 -57 -47 -57 -6 0 -7 5 -3 12 5 7 3 8 -6 3 -10 -6 -9 -11 4 -21 11 -7 13
-14 6 -17 -7 -4 -7 -5 0 -4 7 2 11 6 10 11 -1 4 10 20 25 35 14 16 25 32 24
37 -1 5 -1 15 0 23 1 12 4 12 19 -1 31 -27 42 -31 35 -12 -5 13 -3 15 7 9 9
-5 11 -4 6 4 -6 9 -11 9 -21 1 -8 -7 -16 -7 -19 -2 -8 13 42 45 56 36 6 -4 8
-3 5 3 -8 14 32 46 49 39 8 -3 12 -2 9 3 -3 5 0 13 6 16 5 4 8 13 5 21 -7 18
12 28 28 15 10 -8 20 -5 39 13 24 23 28 23 38 8 10 -16 10 -16 5 0 -5 17 38
53 53 44 12 -8 10 27 -3 44 -7 10 -4 9 10 -2 15 -13 23 -15 31 -7 13 13 36 2
27 -12 -3 -5 -11 -6 -17 -2 -7 4 -6 0 2 -10 16 -20 22 -22 19 -4 -2 6 4 11 13
9 18 -3 46 25 35 35 -3 3 -6 1 -6 -5 0 -14 -36 -16 -44 -3 -3 5 6 16 20 26 19
12 29 14 39 5 10 -8 15 -8 21 1 4 7 3 9 -4 5 -6 -3 -13 -2 -17 4 -3 5 5 15 19
22 22 9 24 14 13 26 -10 13 -9 14 1 8 7 -4 18 -18 23 -30 8 -20 9 -20 6 3 -3
32 21 39 32 9 6 -13 10 -17 10 -8 1 9 -4 21 -11 28 -14 14 -10 19 17 24 11 1
30 14 43 28 13 14 20 19 16 11 -5 -11 -3 -13 10 -8 9 4 15 3 12 -2 -6 -9 23
-26 38 -22 5 1 4 -4 -2 -12 -9 -10 -9 -14 1 -15 29 -2 49 -9 55 -18 14 -20
108 -79 127 -79 11 -1 19 -6 18 -13 -2 -7 4 -12 13 -12 14 0 14 -2 0 -22 -11
-15 -12 -26 -5 -40 5 -10 7 -23 4 -28 -3 -5 0 -7 8 -4 7 2 14 11 14 19 0 8 -4
12 -8 10 -15 -10 -18 25 -3 40 17 17 28 20 19 6 -3 -5 -1 -12 5 -16 5 -3 10 0
11 7 0 7 4 3 10 -10 5 -13 13 -20 19 -17 5 3 10 2 10 -2 0 -5 18 -19 40 -33
22 -14 40 -29 40 -33 0 -5 7 -6 16 -3 8 3 13 2 10 -3 -3 -5 1 -11 9 -15 8 -3
13 -11 11 -18 -1 -7 -1 -10 1 -5 8 12 35 8 31 -5 -8 -23 -32 -15 -67 22 -21
21 -31 28 -27 16 3 -10 1 -25 -5 -32 -8 -10 -6 -12 10 -9 11 2 23 0 26 -6 4
-5 0 -9 -7 -10 -7 0 -3 -4 10 -9 23 -10 52 -3 64 14 4 6 11 6 21 -2 7 -7 18
-8 22 -4 5 4 5 1 1 -5 -4 -7 -2 -13 4 -13 6 0 8 -5 5 -11 -4 -5 10 -3 32 5 29
12 34 13 20 2 -16 -13 -17 -15 -2 -30 9 -9 22 -13 28 -9 7 3 9 2 4 -2 -9 -11
43 -46 57 -38 6 3 8 2 3 -2 -8 -9 72 -67 84 -60 7 5 23 -24 21 -37 -2 -7 32
-3 48 7 5 3 19 1 32 -6 17 -9 24 -9 33 5 7 8 15 13 18 9 4 -3 7 -1 7 5 0 15
-17 16 -25 2 -8 -12 -45 -13 -45 -1 0 5 7 12 16 15 9 3 14 12 11 20 -8 19 3
28 18 16 9 -7 18 -5 32 7 10 10 13 14 6 9 -17 -11 -17 -1 1 13 11 9 18 8 32
-6 16 -16 17 -16 12 -1 -5 11 5 24 32 43 22 15 37 32 34 37 -4 6 4 4 17 -3 31
-17 58 -12 80 14 16 19 18 20 19 5 0 -10 -4 -18 -10 -18 -5 0 -10 -5 -10 -11
0 -8 5 -7 15 1 9 7 15 20 13 28 -4 20 -38 25 -38 6 0 -15 -39 -35 -53 -27 -13
7 4 25 19 19 8 -3 13 -2 11 2 -3 10 40 51 47 44 3 -3 6 -1 6 5 0 6 10 13 23
17 12 3 40 22 62 43 22 21 46 36 54 35 8 -2 10 2 6 10 -4 7 2 3 12 -9 14 -16
23 -19 39 -13 12 5 25 14 29 20 4 7 -6 5 -23 -4 -25 -13 -31 -13 -35 -2 -6 15
1 26 15 26 5 0 6 -5 2 -12 -4 -7 -3 -8 5 -4 9 6 9 11 0 22 -11 13 -9 15 16 14
3 0 11 4 18 10 31 26 102 68 109 64 4 -2 5 5 3 16 -3 18 -1 19 18 9 12 -7 19
-8 15 -4 -4 5 10 21 32 38 31 22 44 26 54 18 10 -8 16 -8 26 3 10 13 8 15 -12
11 -23 -4 -23 -4 -3 11 18 14 22 13 38 -7 16 -19 22 -18 18 5 -1 5 4 6 12 3 8
-3 14 1 14 9 0 8 -4 14 -9 14 -18 0 -23 -2 -20 -11 4 -15 -15 -10 -29 8 -8 9
-9 14 -3 10 12 -7 67 26 59 36 -3 4 -2 4 3 1 4 -3 8 -10 8 -15 1 -5 2 -15 3
-21 1 -8 6 -6 12 5 5 9 19 17 29 17 11 0 20 5 20 10 0 6 11 16 25 22 14 6 25
18 25 27 0 14 -1 14 -10 1 -5 -8 -17 -15 -27 -15 -10 0 -18 -5 -18 -12 0 -6
-3 -15 -7 -19 -5 -4 -8 -1 -8 7 0 12 -2 11 -10 -1 -8 -13 -11 -13 -22 -1 -7 8
-8 11 -2 8 6 -4 30 9 52 29 23 19 50 36 61 37 11 0 18 4 15 9 -6 10 34 30 46
23 5 -3 7 0 4 8 -7 19 27 32 38 15 7 -10 8 -8 6 4 -2 9 6 24 17 33 11 9 15 14
8 11 -6 -4 -14 -2 -18 3 -3 6 6 8 21 5 18 -3 23 -1 18 7 -4 7 -3 9 3 6 9 -6
90 46 105 67 10 14 -2 35 -17 30 -7 -3 -16 0 -21 7 -4 7 -3 10 3 6 6 -4 14 0
17 9 3 8 10 12 16 9 6 -4 7 1 3 10 -4 12 -8 13 -13 5 -5 -7 -17 0 -36 21 -16
18 -39 43 -52 56 -12 13 -19 29 -16 35 4 6 2 8 -4 4 -6 -3 -13 -2 -17 4 -9 15
-28 12 -19 -2 4 -8 3 -9 -2 -5 -5 5 -9 16 -9 25 0 10 -7 16 -17 16 -10 -1 -16
2 -13 6 8 12 -42 67 -60 67 -9 0 -31 -18 -48 -39 -16 -21 -35 -38 -41 -38 -5
0 0 9 11 20 14 12 19 27 16 40 -6 22 -7 23 -16 13z m108 -23 c3 -5 2 -10 -4
-10 -5 0 -13 5 -16 10 -3 6 -2 10 4 10 5 0 13 -4 16 -10z m-1902 -144 c4 -10
1 -13 -9 -9 -7 3 -14 9 -14 14 0 14 17 10 23 -5z m1578 -53 c13 -16 12 -17 -3
-4 -17 13 -22 21 -14 21 2 0 10 -8 17 -17z m-1681 -6 c0 -2 -10 -12 -22 -23
l-23 -19 19 23 c18 21 26 27 26 19z m310 -93 c0 -2 -9 0 -20 6 -11 6 -20 13
-20 16 0 2 9 0 20 -6 11 -6 20 -13 20 -16z m1735 -63 c3 -5 2 -12 -3 -15 -5
-3 -9 1 -9 9 0 17 3 19 12 6z m-578 -25 c0 -8 -6 -12 -15 -9 -11 5 -11 7 0 14
7 5 13 9 14 9 0 0 1 -6 1 -14z m-690 -211 c0 -8 -4 -12 -9 -9 -5 3 -6 10 -3
15 9 13 12 11 12 -6z m-723 -13 c3 -5 -1 -9 -9 -9 -8 0 -12 4 -9 9 3 4 7 8 9
8 2 0 6 -4 9 -8z m886 -86 c0 -2 -7 -7 -16 -10 -8 -3 -12 -2 -9 4 6 10 25 14
25 6z m665 -14 c-3 -3 -11 0 -18 7 -9 10 -8 11 6 5 10 -3 15 -9 12 -12z m-38
-11 c0 -11 -5 -18 -9 -15 -4 3 -5 11 -1 19 7 21 12 19 10 -4z m-1083 -112 c-3
-6 0 -15 7 -20 9 -6 10 -9 2 -9 -15 0 -26 17 -18 30 3 6 8 10 11 10 3 0 2 -5
-2 -11z m60 -107 c3 -5 -1 -9 -9 -9 -8 0 -12 4 -9 9 3 4 7 8 9 8 2 0 6 -4 9
-8z m-1743 -59 c13 -16 12 -17 -3 -4 -10 7 -18 15 -18 17 0 8 8 3 21 -13z
m626 -28 c0 -8 -4 -12 -9 -9 -5 3 -6 10 -3 15 9 13 12 11 12 -6z m-697 -8 c0
-8 -7 -14 -15 -14 -11 0 -12 4 -4 14 6 7 13 13 15 13 2 0 4 -6 4 -13z m-65
-87 c-3 -5 -12 -10 -18 -10 -7 0 -6 4 3 10 19 12 23 12 15 0z m-110 -70 c3 -6
-1 -7 -9 -4 -18 7 -21 14 -7 14 6 0 13 -4 16 -10z m145 -2066 c0 -8 -19 -13
-24 -6 -3 5 1 9 9 9 8 0 15 -2 15 -3z m-687 -221 c-5 -12 -3 -14 7 -8 9 6 11
4 5 -5 -6 -10 -11 -9 -21 5 -14 19 -9 39 6 30 5 -3 6 -13 3 -22z m-38 -11 c-1
-9 1 -22 6 -28 5 -7 3 -11 -6 -11 -8 0 -15 3 -16 6 0 3 -2 14 -4 24 -2 9 1 17
6 17 6 0 7 5 3 12 -4 6 -3 8 4 5 5 -4 9 -15 7 -25z"/>
<path d="M1615 4660 c3 -5 8 -10 11 -10 2 0 4 5 4 10 0 6 -5 10 -11 10 -5 0
-7 -4 -4 -10z"/>
<path d="M4020 4639 c-21 -6 -19 -7 12 -8 20 -1 39 3 42 7 6 10 -21 10 -54 1z"/>
<path d="M1507 4613 c-11 -10 -8 -43 3 -43 6 0 13 7 16 15 4 8 10 15 16 15 5
0 6 -6 2 -12 -4 -7 -4 -10 1 -6 4 4 15 2 24 -5 9 -7 8 -2 -4 15 -13 16 -24 23
-29 17 -13 -12 -29 -12 -21 1 7 11 2 13 -8 3z"/>
<path d="M1565 4610 c3 -5 8 -10 11 -10 2 0 4 5 4 10 0 6 -5 10 -11 10 -5 0
-7 -4 -4 -10z"/>
<path d="M792 4588 c-14 -14 -16 -42 -3 -34 7 5 23 46 17 46 -1 0 -7 -5 -14
-12z"/>
<path d="M1445 4560 c-3 -6 1 -7 9 -4 18 7 21 14 7 14 -6 0 -13 -4 -16 -10z"/>
<path d="M755 4550 c3 -5 8 -10 11 -10 2 0 4 5 4 10 0 6 -5 10 -11 10 -5 0 -7
-4 -4 -10z"/>
<path d="M2715 4540 c3 -5 8 -10 11 -10 2 0 4 5 4 10 0 6 -5 10 -11 10 -5 0
-7 -4 -4 -10z"/>
<path d="M2810 4540 c0 -5 5 -10 11 -10 5 0 7 5 4 10 -3 6 -8 10 -11 10 -2 0
-4 -4 -4 -10z"/>
<path d="M4990 4536 c0 -9 5 -16 10 -16 6 0 10 4 10 9 0 6 -4 13 -10 16 -5 3
-10 -1 -10 -9z"/>
<path d="M4366 4522 c-3 -5 1 -9 9 -9 8 0 15 4 15 9 0 4 -4 8 -9 8 -6 0 -12
-4 -15 -8z"/>
<path d="M660 4491 c0 -10 40 -22 52 -15 18 11 6 24 -22 24 -16 0 -30 -4 -30
-9z"/>
<path d="M4300 4490 c-9 -6 -11 -10 -3 -10 7 0 10 -7 6 -17 -8 -23 1 -15 16
15 12 23 6 28 -19 12z"/>
<path d="M1360 4480 c0 -6 -4 -9 -9 -5 -5 3 -12 1 -16 -5 -4 -6 -11 -8 -16 -5
-5 4 -9 -1 -9 -9 0 -9 -6 -16 -12 -16 -7 0 -5 -5 5 -11 10 -6 21 -8 24 -5 4 3
1 6 -6 6 -7 0 -9 5 -6 10 4 6 11 8 16 4 5 -3 8 0 7 6 -2 7 5 14 15 15 25 4 31
11 18 20 -6 3 -11 1 -11 -5z"/>
<path d="M2514 4473 c3 -4 1 -11 -4 -18 -7 -8 -5 -12 5 -12 8 0 12 4 9 8 -2 4
4 9 13 11 14 3 13 5 -5 10 -13 4 -21 4 -18 1z"/>
<path d="M2570 4451 c0 -7 -5 -9 -12 -5 -7 5 -8 3 -3 -5 5 -9 10 -10 18 -2 6
6 8 14 4 18 -4 3 -7 1 -7 -6z"/>
<path d="M643 4437 c-3 -6 -1 -7 5 -3 5 3 13 0 16 -6 5 -11 7 -11 12 0 3 6 11
9 17 5 7 -3 9 -2 4 2 -11 12 -47 13 -54 2z"/>
<path d="M1267 4406 c-4 -10 0 -12 14 -9 10 3 16 9 13 14 -8 13 -21 11 -27 -5z"/>
<path d="M2449 4378 c-7 -9 -16 -15 -19 -13 -4 2 -7 -2 -7 -10 0 -21 10 -19
25 5 13 22 42 26 59 9 7 -7 13 -7 17 -1 16 27 -56 36 -75 10z"/>
<path d="M1226 4355 c-4 -10 -2 -14 5 -9 6 4 15 0 20 -7 5 -8 9 -9 9 -3 0 6
-6 17 -14 23 -11 9 -15 8 -20 -4z"/>
<path d="M2380 4351 c0 -5 -3 -16 -6 -24 -4 -12 0 -14 14 -10 14 3 18 11 15
24 -5 19 -23 27 -23 10z"/>
<path d="M3079 4343 c-13 -16 -12 -17 4 -4 16 13 21 21 13 21 -2 0 -10 -8 -17
-17z"/>
<path d="M3933 4333 c-3 -10 -8 -21 -9 -24 -2 -4 3 -10 12 -13 9 -3 12 -2 9 5
-4 5 -2 16 5 24 7 9 8 15 0 20 -5 3 -13 -2 -17 -12z"/>
<path d="M563 4328 c-6 -7 -10 -21 -10 -30 0 -15 3 -16 16 -6 26 20 27 21 9
15 -10 -4 -18 -4 -18 0 0 3 8 12 18 19 9 7 12 14 6 14 -6 0 -16 -6 -21 -12z"/>
<path d="M4892 4324 c-7 -7 -12 -18 -12 -24 0 -5 -4 -10 -10 -10 -5 0 -7 8 -4
18 5 16 5 16 -6 -1 -6 -9 -15 -15 -21 -12 -5 4 -9 2 -9 -4 0 -5 -3 -16 -6 -24
-4 -12 0 -14 14 -10 22 5 92 60 92 72 0 12 -25 9 -38 -5z m-32 -44 c0 -5 -5
-10 -11 -10 -5 0 -7 5 -4 10 3 6 8 10 11 10 2 0 4 -4 4 -10z"/>
<path d="M4120 4316 c7 -7 13 -7 20 0 6 6 3 10 -10 10 -13 0 -16 -4 -10 -10z"/>
<path d="M5008 4313 c6 -2 18 -2 25 0 6 3 1 5 -13 5 -14 0 -19 -2 -12 -5z"/>
<path d="M1116 4255 c-3 -8 -1 -15 4 -15 6 0 10 7 10 15 0 8 -2 15 -4 15 -2 0
-6 -7 -10 -15z"/>
<path d="M1148 4263 c10 -4 10 -8 1 -19 -7 -8 -7 -14 -1 -14 12 0 23 26 15 34
-4 3 -11 6 -17 5 -6 0 -5 -3 2 -6z"/>
<path d="M4040 4259 c0 -5 5 -7 10 -4 6 3 10 8 10 11 0 2 -4 4 -10 4 -5 0 -10
-5 -10 -11z"/>
<path d="M517 4236 c-4 -10 1 -12 14 -9 23 6 24 9 5 16 -8 3 -17 0 -19 -7z"/>
<path d="M4790 4246 c0 -2 7 -7 16 -10 8 -3 12 -2 9 4 -6 10 -25 14 -25 6z"/>
<path d="M1097 4229 c7 -7 15 -10 18 -7 3 3 -2 9 -12 12 -14 6 -15 5 -6 -5z"/>
<path d="M1057 4190 c-27 -27 -6 -30 22 -3 15 15 19 23 10 22 -8 0 -22 -8 -32
-19z"/>
<path d="M2186 4197 c3 -10 9 -15 12 -12 3 3 0 11 -7 18 -10 9 -11 8 -5 -6z"/>
<path d="M470 4170 c0 -5 7 -7 15 -4 8 4 15 8 15 10 0 2 -7 4 -15 4 -8 0 -15
-4 -15 -10z"/>
<path d="M2010 4166 c0 -2 9 -6 20 -9 11 -3 18 -1 14 4 -5 9 -34 13 -34 5z"/>
<path d="M2059 4142 c-7 -9 -9 -14 -4 -9 4 4 17 0 27 -10 11 -9 18 -11 18 -5
0 7 -5 12 -11 12 -5 0 -8 4 -4 9 10 18 -13 21 -26 3z"/>
<path d="M1023 4135 c0 -8 4 -12 9 -9 5 3 6 10 3 15 -9 13 -12 11 -12 -6z"/>
<path d="M990 4115 c-7 -8 -10 -15 -7 -15 3 0 -5 -12 -20 -26 -14 -14 -23 -28
-20 -31 9 -8 27 7 27 22 0 14 27 28 39 20 4 -2 8 2 8 10 0 8 -4 15 -9 15 -5 0
-6 5 -3 10 9 15 -1 12 -15 -5z"/>
<path d="M422 4081 c-7 -4 -25 -6 -40 -4 -15 2 -21 0 -14 -3 21 -10 13 -34
-19 -53 -18 -11 -26 -22 -20 -25 6 -4 15 -5 20 -2 5 4 12 0 14 -6 4 -9 6 -8 6
2 1 19 38 43 54 35 7 -4 2 2 -10 13 -22 20 -32 39 -14 28 4 -3 17 1 27 9 20
15 17 20 -4 6z m-22 -45 c0 -3 -4 -8 -10 -11 -5 -3 -10 -1 -10 4 0 6 5 11 10
11 6 0 10 -2 10 -4z"/>
<path d="M2030 4080 c-9 -6 -10 -10 -3 -10 6 0 15 5 18 10 8 12 4 12 -15 0z"/>
<path d="M3494 4083 c12 -22 43 -34 43 -18 0 8 -4 12 -9 9 -5 -3 -16 0 -25 8
-12 9 -15 9 -9 1z"/>
<path d="M320 4055 c0 -9 6 -12 15 -9 8 4 12 10 9 15 -8 14 -24 10 -24 -6z"/>
<path d="M5135 4040 c-3 -5 -1 -10 4 -10 6 0 11 5 11 10 0 6 -2 10 -4 10 -3 0
-8 -4 -11 -10z"/>
<path d="M3650 4036 c0 -2 7 -7 16 -10 8 -3 12 -2 9 4 -6 10 -25 14 -25 6z"/>
<path d="M5177 4016 c20 -26 27 -28 17 -3 -3 8 -12 18 -20 21 -11 4 -10 0 3
-18z"/>
<path d="M926 4021 c-4 -5 -2 -12 3 -15 5 -4 12 -2 15 3 4 5 2 12 -3 15 -5 4
-12 2 -15 -3z"/>
<path d="M2776 4011 c-4 -5 3 -7 14 -4 23 6 26 13 6 13 -8 0 -17 -4 -20 -9z"/>
<path d="M5100 4011 c0 -5 11 -12 25 -15 15 -4 25 -13 24 -24 0 -10 -3 -12 -6
-4 -6 16 -25 15 -49 -4 -10 -8 -12 -12 -4 -8 8 4 12 4 8 -1 -4 -4 -2 -15 5
-24 6 -8 -2 -5 -19 7 -28 19 -32 20 -30 5 0 -10 -5 -18 -11 -19 -26 -3 -28 -5
-13 -14 8 -5 10 -10 5 -10 -6 0 -20 6 -31 14 -14 10 -24 12 -35 4 -11 -8 -11
-9 3 -5 9 3 22 -2 29 -11 8 -9 9 -14 4 -9 -4 4 -16 0 -26 -9 -10 -9 -25 -14
-34 -10 -9 3 -14 2 -11 -2 2 -4 -2 -16 -10 -27 -8 -10 -14 -16 -14 -12 0 4
-11 0 -25 -9 -19 -12 -23 -20 -15 -29 8 -10 8 -15 -1 -21 -8 -4 -9 -3 -5 4 4
7 1 12 -9 12 -13 0 -14 -4 -5 -21 18 -33 4 -33 -16 0 -10 16 -22 27 -27 24 -5
-3 -3 -9 4 -14 10 -6 11 -9 2 -9 -7 0 -13 -8 -13 -17 0 -15 2 -16 10 -3 8 13
11 12 24 -5 12 -17 16 -18 32 -5 16 13 17 13 12 -1 -4 -9 1 -27 10 -40 9 -13
16 -26 15 -29 -4 -10 21 -70 29 -70 5 0 4 -10 -3 -21 -7 -13 -7 -19 -1 -15 16
10 25 -33 11 -50 -6 -8 -9 -17 -5 -21 3 -3 6 -1 6 5 0 7 5 12 11 12 6 0 9 -9
6 -20 -3 -11 -1 -18 3 -15 5 3 16 -26 26 -64 10 -38 21 -68 24 -66 3 2 5 -18
5 -43 0 -26 4 -50 8 -53 5 -3 10 -17 11 -30 2 -13 9 -61 16 -107 10 -66 10
-88 0 -106 -6 -13 -10 -32 -7 -42 3 -13 5 -11 6 9 2 51 22 28 22 -25 0 -29 2
-107 4 -173 3 -82 1 -112 -5 -95 -7 19 -8 13 -4 -25 12 -116 12 -119 3 -104
-6 10 -9 1 -9 -27 0 -22 -3 -43 -6 -47 -3 -3 -8 -34 -10 -69 -3 -35 -6 -70 -8
-78 -15 -67 -20 -80 -28 -80 -5 0 -7 -4 -4 -9 10 -16 -6 -71 -18 -64 -6 4 -5
-1 3 -10 12 -15 9 -20 -9 -19 -3 0 -6 -14 -6 -31 -1 -17 -6 -33 -12 -35 -6 -2
-9 -9 -6 -16 2 -6 -2 -29 -11 -49 -9 -21 -13 -42 -10 -47 4 -6 1 -10 -5 -10
-7 0 -9 -7 -6 -16 3 -8 2 -12 -4 -9 -6 3 -10 -1 -10 -10 0 -8 -11 -38 -25 -66
-14 -27 -23 -54 -20 -59 4 -6 -2 -7 -12 -3 -16 6 -16 5 -4 -10 7 -9 9 -17 4
-17 -13 0 -105 -169 -97 -181 3 -5 2 -8 -3 -7 -4 2 -9 -1 -10 -5 -1 -5 -9 -14
-19 -21 -13 -10 -14 -15 -4 -21 9 -6 11 -4 5 6 -5 8 -5 11 0 7 4 -4 13 -4 19
2 8 6 12 3 12 -10 0 -10 -4 -16 -9 -13 -4 3 -18 -3 -29 -14 -12 -10 -18 -12
-14 -5 4 6 2 12 -3 12 -11 0 -15 -13 -12 -40 2 -13 1 -13 -8 0 -9 12 -11 12
-16 -2 -4 -10 -4 -21 -1 -26 3 -5 -6 -8 -19 -6 -14 1 -28 -3 -32 -8 -4 -7 -1
-8 7 -3 8 5 11 3 8 -6 -3 -8 -1 -23 4 -34 8 -18 8 -19 -5 -3 -10 13 -16 15
-25 6 -7 -7 -12 -17 -12 -23 0 -16 -55 -67 -64 -58 -4 4 -4 0 0 -10 3 -9 10
-15 14 -12 5 3 11 1 15 -4 6 -11 -27 -7 -47 5 -7 4 -8 3 -4 -5 5 -7 -7 -25
-28 -45 -20 -18 -36 -36 -36 -41 0 -5 7 0 16 11 15 18 15 17 1 -6 -9 -15 -22
-24 -32 -22 -13 3 -16 -1 -12 -12 4 -9 3 -15 -1 -15 -20 3 -23 -3 -11 -19 13
-15 12 -16 -4 -3 -15 12 -20 12 -30 1 -10 -10 -9 -11 2 -5 10 6 12 4 7 -4 -5
-7 -11 -10 -14 -7 -3 3 -13 -1 -22 -9 -14 -13 -16 -12 -16 5 0 11 6 20 13 20
21 0 15 16 -8 17 -24 2 -38 -25 -18 -38 8 -5 10 -9 5 -9 -5 0 -3 -6 3 -14 9
-10 7 -17 -6 -27 -9 -8 -14 -9 -11 -4 10 16 -26 35 -43 24 -11 -7 -9 -9 9 -9
28 0 28 -7 0 -30 -17 -13 -25 -15 -31 -7 -6 8 -7 5 -3 -6 3 -11 0 -20 -9 -23
-8 -3 -17 -14 -20 -23 -6 -19 -30 -21 -55 -6 -12 7 -13 6 -3 -6 10 -13 10 -19
-2 -35 -8 -10 -15 -14 -15 -9 0 6 -5 3 -10 -5 -8 -12 -13 -13 -29 -3 -17 11
-19 10 -14 -18 2 -17 0 -29 -7 -29 -6 0 -8 6 -5 13 4 6 -2 2 -13 -10 -14 -16
-22 -19 -30 -11 -9 9 -10 6 -7 -10 2 -12 -1 -25 -7 -28 -6 -4 -8 -3 -5 3 4 6
0 13 -8 16 -10 4 -12 1 -8 -11 3 -9 2 -14 -2 -9 -5 4 -16 0 -26 -9 -10 -9 -25
-14 -34 -10 -9 3 -13 2 -10 -3 3 -5 -13 -20 -34 -32 -22 -12 -39 -26 -38 -32
2 -10 -22 -18 -65 -20 -14 -1 -24 -6 -20 -11 3 -5 -2 -7 -11 -3 -11 4 -14 2
-10 -9 3 -9 -1 -14 -13 -14 -21 -1 -50 -20 -53 -35 0 -5 -23 -10 -50 -10 -27
0 -47 -3 -44 -7 2 -5 -1 -8 -7 -8 -6 0 -8 -5 -4 -12 4 -6 3 -8 -4 -5 -13 9
-44 -2 -37 -13 2 -4 -7 -5 -20 -2 -15 2 -25 0 -25 -7 0 -7 -4 -10 -9 -7 -12 8
-42 -4 -36 -13 2 -5 -16 -8 -41 -9 -31 0 -50 -6 -60 -19 -9 -10 -13 -13 -10
-7 3 7 -1 15 -10 18 -8 3 -12 2 -9 -4 11 -18 -40 -33 -66 -19 -21 11 -23 10
-11 -3 10 -13 9 -15 -14 -10 -19 3 -25 1 -20 -6 5 -8 -3 -10 -26 -7 -26 4 -29
3 -13 -4 26 -12 10 -13 -37 -2 -25 6 -38 5 -38 -1 0 -7 -16 -8 -42 -5 -27 4
-37 2 -27 -4 12 -7 11 -9 -3 -9 -16 0 -18 -12 -18 -120 0 -73 4 -120 10 -120
6 0 10 -23 10 -51 0 -40 -3 -49 -12 -41 -10 8 -14 2 -16 -24 -1 -21 2 -33 8
-29 5 3 6 13 3 22 -4 11 -3 14 5 9 7 -4 12 -13 12 -21 0 -9 17 -14 50 -17 28
-1 50 1 50 6 0 5 19 6 42 3 23 -3 36 -2 29 2 -8 5 5 11 35 15 67 10 178 35
247 56 38 11 57 13 57 6 0 -6 5 -4 10 5 5 9 26 20 47 24 20 4 53 15 74 25 27
14 39 16 48 7 8 -8 11 -8 11 2 0 8 6 11 16 7 8 -3 13 -2 10 3 -8 12 50 34 66
25 10 -6 11 -5 1 7 -11 13 -8 15 21 14 19 0 33 2 30 6 -6 10 26 20 38 13 6 -4
5 -10 -3 -15 -8 -5 -9 -9 -4 -9 6 0 16 4 23 9 11 7 10 9 -3 15 -22 8 -8 29 16
23 11 -3 17 -1 13 4 -3 5 0 9 6 9 6 0 8 5 5 10 -6 10 -5 11 32 15 12 1 42 14
67 29 26 15 52 24 59 20 6 -4 9 -4 5 1 -11 11 29 38 44 29 6 -4 8 -3 5 3 -4 6
9 21 29 32 24 15 34 26 30 37 -4 10 -2 13 6 7 7 -4 21 -8 32 -8 18 -2 18 -1 1
12 -14 10 -15 13 -4 14 29 2 34 4 57 19 22 15 32 38 10 24 -7 -4 -8 -3 -4 5 4
6 11 9 16 6 5 -3 11 -1 15 5 4 6 11 8 16 5 17 -11 50 -14 44 -4 -4 5 -12 6
-18 3 -7 -4 -1 5 13 20 34 38 58 46 92 28 16 -8 32 -12 35 -9 3 4 -6 9 -20 12
-33 9 -59 36 -29 30 16 -3 20 1 17 16 -2 10 1 22 7 25 7 4 8 2 4 -4 -11 -18 5
-14 28 6 20 16 20 16 7 0 -7 -10 -9 -18 -3 -18 14 0 23 28 11 35 -13 9 0 27
16 22 6 -3 20 4 29 14 9 11 22 17 29 13 6 -4 9 -3 4 1 -4 5 -1 15 7 24 8 9 15
21 15 26 1 6 4 10 9 10 16 0 32 17 26 27 -4 6 -2 8 3 5 13 -8 36 17 25 28 -4
5 -2 6 3 2 6 -3 17 -2 25 3 11 7 11 11 1 23 -8 10 -9 17 -1 22 5 3 10 3 10 -1
0 -4 11 3 25 16 14 13 25 19 25 14 0 -5 20 13 44 40 24 28 42 56 39 63 -4 9 0
11 13 6 14 -5 16 -3 11 11 -4 9 -3 15 2 12 12 -8 33 19 23 29 -4 5 -1 5 6 1
11 -7 17 6 13 28 -1 5 5 4 13 -3 13 -11 15 -10 11 8 -2 12 0 19 6 16 13 -9 11
9 -3 25 -7 8 -3 6 10 -5 13 -11 23 -15 22 -10 -6 29 0 38 18 24 14 -11 15 -11
5 0 -12 14 -7 44 6 36 4 -2 8 1 8 8 0 7 11 31 26 53 14 23 23 45 19 50 -4 4
-2 4 5 0 7 -3 14 2 18 14 4 11 11 17 17 14 6 -4 8 -2 5 3 -9 14 37 96 47 86 4
-4 4 1 0 11 -5 14 -4 17 5 11 10 -6 11 -3 1 15 -10 18 -9 21 1 15 9 -6 11 -3
6 9 -4 10 -3 15 3 11 6 -3 10 -2 10 4 0 6 8 7 18 4 16 -7 16 -6 0 11 -21 20
-24 31 -6 20 8 -5 9 -2 5 10 -4 9 -3 15 1 12 5 -3 19 19 31 49 13 30 27 53 31
50 4 -3 6 5 2 17 -4 16 -2 19 8 13 9 -5 11 -4 6 4 -9 15 15 82 27 74 5 -3 4 4
-2 16 -8 14 -8 21 -1 21 5 0 10 7 10 16 0 8 4 13 9 10 5 -4 7 4 3 16 -3 11 -1
19 4 16 5 -4 9 13 9 37 0 24 3 41 8 38 4 -2 5 8 1 24 -6 27 -6 28 11 8 9 -11
14 -14 10 -7 -8 15 4 74 13 68 4 -2 8 14 9 35 0 22 4 51 7 65 5 19 4 24 -6 18
-10 -6 -10 -4 1 9 7 9 16 15 20 13 4 -3 6 12 4 32 -2 23 0 30 4 20 5 -10 8 13
9 54 0 44 -3 63 -8 52 -5 -12 -5 -5 -2 16 4 19 9 37 13 40 6 5 7 9 10 63 1 18
5 27 9 20 17 -27 -7 505 -28 607 -5 25 -12 68 -15 95 -11 85 -46 225 -56 220
-5 -4 -6 1 -3 10 4 8 2 28 -4 43 -6 15 -14 36 -18 47 -4 11 -8 22 -8 25 -9 41
-30 100 -36 100 -4 0 -7 7 -7 15 0 18 -45 119 -55 123 -4 2 -4 10 -1 19 5 12
3 14 -7 8 -8 -5 -11 -4 -7 2 4 6 0 24 -8 39 -8 16 -15 25 -15 19 0 -5 -4 -3
-9 4 -6 9 -6 22 1 34 7 13 7 17 0 13 -6 -3 -17 3 -25 15 -9 13 -16 16 -19 8
-3 -8 -9 -7 -20 5 -18 17 -38 21 -38 7z m317 -723 c-3 -7 -5 -2 -5 12 0 14 2
19 5 13 2 -7 2 -19 0 -25z m-410 -1170 c-3 -8 -6 -5 -6 6 -1 11 2 17 5 13 3
-3 4 -12 1 -19z m-53 -184 c3 -8 2 -12 -4 -9 -6 3 -10 10 -10 16 0 14 7 11 14
-7z m147 -511 c13 -16 12 -17 -3 -4 -17 13 -22 21 -14 21 2 0 10 -8 17 -17z
m-101 -157 c-7 -7 -13 -7 -20 0 -6 6 -3 10 10 10 13 0 16 -4 10 -10z m-540
-90 c0 -2 -8 -10 -17 -17 -16 -13 -17 -12 -4 4 13 16 21 21 21 13z m317 -151
c0 -17 -13 -20 -21 -6 -4 5 0 12 6 14 7 3 13 6 14 6 0 1 1 -6 1 -14z m-622
-114 c3 -5 2 -12 -3 -15 -5 -3 -9 1 -9 9 0 17 3 19 12 6z m20 -380 c3 -5 2
-12 -3 -15 -5 -3 -9 1 -9 9 0 17 3 19 12 6z m-888 -25 c0 -8 -8 -11 -21 -8
-19 5 -19 6 0 13 10 4 19 8 20 8 0 1 1 -5 1 -13z"/>
<path d="M901 3984 c6 -7 17 -10 25 -7 20 7 18 10 -11 15 -20 4 -23 2 -14 -8z"/>
<path d="M335 3970 c3 -5 8 -10 11 -10 2 0 4 5 4 10 0 6 -5 10 -11 10 -5 0 -7
-4 -4 -10z"/>
<path d="M4382 3960 c-7 -11 -8 -20 -3 -20 9 0 24 30 18 36 -1 2 -8 -6 -15
-16z"/>
<path d="M872 3945 c-10 -21 -9 -25 4 -25 10 0 14 6 11 14 -3 8 -1 16 6 19 7
2 8 5 0 10 -5 3 -15 -5 -21 -18z"/>
<path d="M340 3940 c0 -5 7 -10 16 -10 8 0 12 5 9 10 -3 6 -10 10 -16 10 -5 0
-9 -4 -9 -10z"/>
<path d="M2890 3943 c0 -6 8 -17 18 -24 16 -13 16 -13 2 6 -8 11 -16 22 -17
24 -2 2 -3 0 -3 -6z"/>
<path d="M1791 3914 c0 -11 3 -14 6 -6 3 7 2 16 -1 19 -3 4 -6 -2 -5 -13z"/>
<path d="M5236 3908 c3 -5 8 -7 12 -4 3 3 11 -2 19 -12 13 -16 14 -16 5 2 -5
11 -17 21 -26 22 -9 1 -13 -2 -10 -8z"/>
<path d="M1590 3899 c0 -5 5 -7 10 -4 6 3 10 8 10 11 0 2 -4 4 -10 4 -5 0 -10
-5 -10 -11z"/>
<path d="M820 3886 c0 -2 7 -7 16 -10 8 -3 12 -2 9 4 -6 10 -25 14 -25 6z"/>
<path d="M4267 3875 c-16 -11 -16 -13 -2 -19 9 -3 14 -2 10 3 -3 5 1 11 7 14
7 2 11 7 8 10 -3 3 -13 0 -23 -8z"/>
<path d="M303 3870 c-23 -10 -32 -30 -12 -30 5 0 7 -5 3 -12 -4 -7 -3 -8 5 -4
6 4 9 12 6 17 -4 5 0 9 8 9 7 0 14 7 14 15 0 8 -1 15 -1 14 -1 0 -11 -4 -23
-9z"/>
<path d="M1695 3866 c-6 -6 -15 -18 -20 -26 -7 -12 -6 -13 7 -3 8 7 19 9 23 5
5 -4 5 -2 2 5 -4 6 -2 13 5 15 7 3 8 7 3 10 -6 3 -15 1 -20 -6z"/>
<path d="M4881 3864 c0 -11 3 -14 6 -6 3 7 2 16 -1 19 -3 4 -6 -2 -5 -13z"/>
<path d="M827 3859 c7 -7 15 -10 18 -7 3 3 -2 9 -12 12 -14 6 -15 5 -6 -5z"/>
<path d="M3020 3861 c0 -7 -5 -9 -12 -5 -7 5 -8 3 -3 -5 5 -9 10 -10 18 -2 6
6 8 14 4 18 -4 3 -7 1 -7 -6z"/>
<path d="M2510 3835 c0 -9 5 -15 11 -13 6 2 11 8 11 13 0 5 -5 11 -11 13 -6 2
-11 -4 -11 -13z"/>
<path d="M4810 3820 c-9 -6 -10 -10 -3 -10 6 0 15 5 18 10 8 12 4 12 -15 0z"/>
<path d="M2454 3808 c-4 -6 -3 -8 4 -4 6 3 15 -1 20 -10 6 -11 12 -13 16 -6 4
6 -2 16 -13 22 -14 7 -22 7 -27 -2z"/>
<path d="M4109 3792 c7 -12 17 -20 22 -16 6 3 9 7 7 8 -2 1 -12 8 -22 16 -18
14 -19 14 -7 -8z"/>
<path d="M3012 3789 c2 -6 8 -10 13 -10 5 0 11 4 13 10 2 6 -4 11 -13 11 -9 0
-15 -5 -13 -11z"/>
<path d="M3090 3789 c0 -11 27 -12 34 -1 2 4 -4 9 -15 9 -10 1 -19 -2 -19 -8z"/>
<path d="M2435 3780 c-16 -7 -17 -9 -3 -9 9 -1 20 4 23 9 7 11 7 11 -20 0z"/>
<path d="M270 3770 c0 -5 5 -10 11 -10 5 0 7 5 4 10 -3 6 -8 10 -11 10 -2 0
-4 -4 -4 -10z"/>
<path d="M2335 3770 c3 -5 8 -10 11 -10 2 0 4 5 4 10 0 6 -5 10 -11 10 -5 0
-7 -4 -4 -10z"/>
<path d="M4079 3763 c-13 -16 -12 -17 4 -4 16 13 21 21 13 21 -2 0 -10 -8 -17
-17z"/>
<path d="M2393 3755 c0 -8 4 -12 9 -9 4 3 8 9 8 15 0 5 -4 9 -8 9 -5 0 -9 -7
-9 -15z"/>
<path d="M762 3735 c6 -14 15 -25 20 -25 5 0 1 11 -8 25 -9 14 -18 25 -20 25
-2 0 2 -11 8 -25z"/>
<path d="M4043 3733 c-3 -10 -8 -22 -11 -27 -3 -5 0 -6 5 -3 11 7 25 47 17 47
-3 0 -7 -8 -11 -17z"/>
<path d="M4002 3710 c-7 -11 -8 -20 -3 -20 9 0 24 30 18 36 -1 2 -8 -6 -15
-16z"/>
<path d="M4805 3720 c-3 -6 1 -7 9 -4 18 7 21 14 7 14 -6 0 -13 -4 -16 -10z"/>
<path d="M746 3705 c5 -11 2 -13 -12 -8 -11 4 -15 3 -10 -5 5 -8 46 -14 46 -6
0 11 -14 34 -21 34 -4 0 -6 -7 -3 -15z"/>
<path d="M4826 3705 c-21 -16 -6 -28 22 -18 15 6 17 11 8 19 -9 8 -17 8 -30
-1z"/>
<path d="M4864 3661 c11 -11 24 -21 30 -21 6 0 5 4 -2 9 -8 4 -13 12 -12 17 0
5 -7 11 -17 13 -17 3 -17 2 1 -18z"/>
<path d="M3300 3646 c0 -2 7 -7 16 -10 8 -3 12 -2 9 4 -6 10 -25 14 -25 6z"/>
<path d="M3345 3620 c3 -5 13 -10 21 -10 8 0 12 -4 9 -10 -3 -5 2 -10 12 -10
16 1 15 3 -6 20 -25 21 -46 27 -36 10z"/>
<path d="M3910 3620 c-9 -6 -10 -10 -3 -10 6 0 15 5 18 10 8 12 4 12 -15 0z"/>
<path d="M3985 3621 c-3 -5 -1 -12 5 -16 12 -7 30 2 30 16 0 12 -27 12 -35 0z"/>
<path d="M3851 3604 c-12 -14 -11 -15 8 -12 12 1 22 7 22 13 1 16 -15 15 -30
-1z"/>
<path d="M200 3586 c0 -8 4 -17 9 -20 5 -4 7 3 4 14 -6 23 -13 26 -13 6z"/>
<path d="M4475 3580 c-3 -6 1 -7 9 -4 18 7 21 14 7 14 -6 0 -13 -4 -16 -10z"/>
<path d="M3816 3568 c3 -4 9 -8 15 -8 5 0 9 4 9 8 0 5 -7 9 -15 9 -8 0 -12 -4
-9 -9z"/>
<path d="M2053 3540 c-29 -36 -29 -42 2 -28 14 6 23 13 20 16 -3 3 0 11 6 18
5 7 6 14 2 17 -4 2 -18 -8 -30 -23z"/>
<path d="M4455 3550 c-3 -6 0 -13 9 -16 13 -5 12 -8 -2 -25 -9 -10 -21 -19
-27 -19 -5 0 -3 4 5 10 8 5 12 11 10 13 -6 6 -64 -25 -70 -38 -3 -5 -13 -11
-24 -12 -14 -3 -17 1 -12 14 4 10 4 14 0 10 -4 -4 -13 1 -21 11 -12 16 -13 16
-7 0 4 -12 1 -18 -10 -18 -8 0 -23 -11 -32 -25 -9 -14 -21 -22 -27 -18 -6 3
-7 1 -3 -5 12 -19 26 -14 36 13 5 14 17 25 25 25 9 0 13 -4 10 -10 -3 -5 0 -7
8 -4 8 3 18 0 23 -7 4 -7 3 -10 -4 -5 -6 3 -20 -4 -31 -16 -12 -12 -21 -18
-21 -14 0 5 -7 3 -15 -4 -11 -9 -12 -16 -5 -25 8 -10 8 -15 -1 -21 -7 -4 -9
-3 -6 3 4 6 0 14 -8 17 -10 4 -19 -2 -25 -17 -5 -12 -9 -16 -9 -9 -1 7 -6 10
-11 7 -6 -4 -8 -11 -5 -16 3 -5 -1 -6 -9 -3 -9 3 -16 1 -16 -5 0 -6 -7 -11
-16 -11 -9 0 -12 5 -8 13 4 6 3 8 -1 4 -5 -4 -11 -15 -14 -25 -3 -9 -7 -259
-8 -555 -3 -433 -1 -537 9 -531 10 6 11 5 1 -8 -7 -8 -9 -19 -5 -23 4 -5 1 -5
-6 -1 -7 4 -9 13 -5 19 4 7 0 6 -10 -2 -12 -9 -17 -10 -17 -2 0 7 -5 9 -11 5
-7 -4 -8 -9 -1 -13 6 -4 3 -15 -9 -29 -10 -13 -23 -21 -29 -17 -5 3 -10 2 -10
-4 0 -5 -9 -8 -20 -6 -11 2 -18 0 -15 -5 3 -5 -4 -14 -15 -20 -11 -6 -18 -15
-15 -20 3 -6 -1 -7 -9 -4 -9 4 -16 1 -16 -6 0 -7 -8 -10 -20 -7 -11 3 -18 2
-15 -2 7 -12 -26 -53 -38 -48 -7 2 -20 -3 -30 -11 -15 -14 -21 -14 -40 -3
l-22 14 20 -22 c11 -13 15 -21 10 -20 -16 5 -66 -33 -61 -47 7 -18 -5 -25 -22
-12 -11 10 -17 8 -28 -7 -8 -10 -14 -15 -14 -11 0 5 -7 3 -15 -4 -9 -7 -14
-19 -11 -26 3 -7 1 -16 -5 -19 -5 -4 -7 -10 -4 -15 3 -5 0 -12 -6 -16 -7 -4
-9 -3 -6 3 8 12 -17 25 -28 15 -3 -4 -14 -7 -23 -7 -9 0 -16 -6 -14 -13 1 -8
-2 -11 -7 -7 -11 6 -51 -15 -51 -28 0 -4 6 -5 13 -1 6 4 1 -5 -12 -19 -25 -28
-42 -38 -22 -13 7 8 8 17 3 20 -5 3 -16 -4 -25 -15 -9 -10 -21 -19 -27 -19
-14 0 -13 23 3 40 10 12 9 12 -6 0 -12 -9 -16 -21 -13 -36 4 -14 0 -27 -12
-35 -16 -13 -16 -12 -2 6 15 20 14 20 -8 1 -23 -20 -30 -32 -12 -21 6 3 10 1
10 -5 0 -6 4 -9 8 -6 5 3 9 -1 9 -9 0 -12 -4 -12 -21 1 -28 19 -40 18 -51 -8
-6 -14 -18 -22 -29 -21 -11 1 -26 -5 -34 -13 -16 -16 -38 -13 -34 5 1 6 -2 11
-8 11 -14 0 -13 -13 2 -28 9 -9 9 -12 -2 -12 -13 0 -13 -1 0 -9 8 -6 18 -7 24
-4 5 3 6 1 2 -6 -6 -9 -14 -8 -33 4 -14 10 -23 12 -19 7 4 -6 -2 -16 -13 -22
-13 -6 -18 -17 -15 -28 5 -13 4 -14 -4 -3 -8 11 -14 10 -34 -3 -14 -9 -28 -13
-32 -9 -4 5 -7 4 -6 -2 4 -19 -2 -50 -7 -38 -3 9 -10 10 -22 3 -10 -5 -22 -6
-26 -2 -5 4 -5 1 -1 -6 4 -7 1 -15 -8 -18 -9 -3 -13 -11 -9 -17 4 -6 0 -8 -9
-5 -8 4 -15 1 -15 -7 0 -7 7 -11 16 -8 13 4 13 3 2 -5 -8 -6 -24 -8 -36 -6
-14 2 -33 -5 -46 -17 -13 -11 -18 -18 -11 -14 6 3 12 1 12 -5 0 -7 -7 -9 -16
-6 -23 9 -37 -3 -23 -20 6 -7 16 -11 22 -7 6 4 7 1 3 -6 -6 -10 -12 -9 -24 2
-25 21 -46 32 -39 20 8 -13 -18 -37 -32 -29 -5 3 -8 -7 -7 -22 2 -26 -1 -28
-36 -27 -27 1 -35 -2 -27 -11 6 -8 5 -14 -7 -18 -26 -10 -34 -7 -27 12 6 15 5
15 -10 3 -16 -12 -19 -9 -16 15 0 4 -5 10 -12 15 -10 6 -10 11 2 26 13 16 12
17 -3 5 -9 -8 -23 -10 -29 -6 -7 4 -9 3 -6 -2 3 -5 -3 -10 -13 -10 -10 0 -16
4 -14 8 8 12 -36 50 -51 44 -8 -3 -17 0 -21 6 -5 7 -2 8 7 3 8 -4 1 4 -16 19
-16 14 -36 26 -42 27 -7 1 -17 2 -22 3 -6 0 -16 8 -23 16 -11 12 -11 12 5 1 9
-7 17 -11 17 -8 0 2 -17 17 -37 33 -20 15 -34 23 -30 18 3 -5 -3 -10 -13 -10
-10 0 -16 5 -13 12 2 6 -3 17 -11 24 -9 7 -14 15 -11 19 2 4 -11 7 -30 6 -18
0 -31 3 -29 7 2 4 -6 16 -18 27 -14 14 -17 21 -8 21 7 0 10 3 6 7 -4 5 -13 0
-21 -10 -12 -16 -13 -16 -18 4 -4 16 -10 19 -28 14 -13 -4 -19 -3 -15 3 12 20
-33 45 -84 45 -28 0 -53 -3 -56 -6 -5 -5 -11 -28 -13 -49 -1 -5 -6 -8 -12 -8
-5 0 -8 4 -4 9 3 5 1 12 -5 16 -5 3 -10 1 -10 -6 0 -7 -3 -9 -7 -6 -3 4 -12 2
-20 -5 -10 -8 -17 -8 -25 0 -7 7 -17 12 -22 12 -6 0 -3 -5 7 -11 15 -9 16 -13
5 -27 -7 -9 -8 -13 -2 -9 6 3 11 0 11 -8 0 -10 -5 -11 -18 -4 -12 6 -20 5 -24
-2 -4 -6 -14 -8 -22 -5 -8 3 -12 2 -9 -2 7 -12 -24 -53 -35 -47 -5 4 -16 -1
-25 -9 -19 -19 -34 -21 -35 -3 0 6 -7 -1 -14 -18 -7 -16 -11 -35 -8 -42 6 -16
72 -55 83 -48 5 3 11 1 15 -5 4 -6 11 -8 16 -5 5 3 6 0 3 -8 -3 -8 6 -21 20
-31 15 -9 26 -13 26 -9 0 5 5 0 11 -9 5 -10 15 -18 20 -18 6 0 8 4 4 9 -3 5
-1 12 4 15 10 7 9 -9 -3 -36 -5 -10 -14 -14 -23 -11 -11 4 -14 3 -9 -6 4 -7
13 -10 19 -8 7 2 21 -3 31 -12 11 -9 16 -11 13 -4 -4 6 -3 14 3 18 12 7 62
-24 55 -35 -3 -5 4 -6 15 -3 12 3 20 0 20 -6 0 -7 4 -10 9 -6 6 3 15 -3 20
-13 6 -11 24 -25 41 -32 16 -7 30 -17 30 -22 0 -6 7 -5 15 2 8 7 16 10 16 6 1
-3 2 -9 3 -13 1 -5 5 -14 9 -20 8 -12 2 -17 -16 -14 -5 1 -5 -3 -2 -9 5 -8 13
-6 26 6 12 11 19 13 20 6 3 -27 4 -31 13 -39 5 -5 6 -2 1 6 -5 9 -3 12 6 9 8
-3 13 -10 12 -16 -1 -5 5 -9 15 -8 10 0 16 -5 14 -14 -3 -11 2 -9 18 5 20 18
21 18 14 0 -6 -14 -4 -16 7 -10 12 8 12 6 0 -8 -12 -15 -12 -17 2 -12 8 4 18
2 22 -4 3 -6 15 -11 26 -11 14 0 18 -4 13 -12 -5 -8 0 -7 11 2 10 8 16 10 12
4 -7 -11 28 -46 37 -37 3 4 6 1 6 -5 0 -7 7 -12 16 -12 9 0 12 5 8 12 -4 7 -3
8 4 4 6 -4 9 -13 6 -20 -3 -9 7 -20 26 -29 16 -9 28 -12 26 -8 -3 4 0 13 5 21
9 13 10 13 6 0 -2 -8 3 -21 12 -28 13 -11 13 -12 1 -7 -8 4 -2 -4 15 -18 16
-14 34 -23 39 -20 5 4 6 1 2 -5 -4 -7 3 -14 19 -18 14 -3 25 -9 25 -13 0 -3 9
-12 21 -19 17 -11 20 -11 13 0 -6 9 -3 9 10 -1 14 -12 19 -12 26 -2 4 8 13 10
21 6 8 -5 11 -5 7 0 -8 9 71 70 79 61 8 -8 -5 -36 -17 -36 -6 0 -8 5 -4 12 5
7 3 8 -5 3 -9 -5 -10 -10 -2 -18 8 -8 20 -2 44 23 17 18 25 28 16 22 -13 -10
-19 -9 -30 5 -9 11 -10 14 -1 9 7 -4 12 -2 12 4 0 6 5 8 10 5 6 -3 10 -2 10 2
0 5 12 14 28 21 42 19 92 59 84 68 -4 5 2 2 13 -6 11 -8 17 -10 13 -6 -4 5 6
19 22 31 16 12 26 26 22 30 -4 5 -1 5 7 0 9 -5 19 -2 28 10 7 11 13 16 13 12
0 -4 30 13 68 39 37 25 66 50 65 55 -2 4 3 6 10 4 6 -3 24 6 38 19 15 14 29
23 31 21 2 -2 17 7 32 20 16 14 23 25 16 25 -7 0 -11 3 -8 6 4 3 17 0 30 -8
33 -18 51 -16 64 7 5 11 18 19 28 18 13 -1 15 2 7 10 -7 7 -15 6 -26 -3 -8 -7
-15 -11 -16 -9 -6 31 -6 38 2 33 6 -3 16 0 24 6 8 6 19 9 24 6 6 -4 8 1 6 12
-2 13 4 18 23 20 21 1 24 0 12 -8 -8 -5 -10 -10 -4 -10 19 0 24 13 11 28 -10
13 -9 14 12 3 13 -7 21 -8 17 -3 -10 17 24 43 48 37 18 -5 18 -4 -4 10 -14 10
-17 14 -7 11 22 -7 90 41 80 57 -3 6 -1 7 6 3 12 -8 81 32 81 46 0 3 8 5 18 3
9 -2 17 -4 17 -5 0 -1 7 -3 17 -5 12 -2 15 3 13 21 -2 22 6 29 28 25 5 -1 6 3
3 8 -3 5 10 19 28 32 19 13 32 28 29 33 -3 5 -1 6 6 2 6 -4 19 -2 27 5 8 6 18
9 22 5 8 -8 -36 -48 -47 -43 -11 6 -53 -41 -42 -47 5 -4 15 2 20 13 6 11 24
22 41 26 17 4 28 10 25 15 -3 4 2 13 10 20 13 11 13 14 -2 27 -10 8 -13 12 -7
9 6 -3 30 8 54 24 24 16 48 26 54 23 6 -4 5 -8 -2 -11 -10 -3 -10 -7 0 -20 11
-15 11 -15 -3 -4 -13 10 -19 9 -29 -3 -20 -24 33 -19 55 5 18 20 18 21 -1 14
-10 -4 -16 -3 -11 1 4 5 0 16 -8 25 -13 14 -12 16 6 17 10 1 17 -2 14 -7 -3
-5 4 -14 16 -20 13 -7 19 -8 15 -2 -10 16 15 26 26 11 6 -10 7 -7 3 10 -6 18
-4 22 6 16 8 -5 11 -4 6 1 -5 5 -13 9 -18 9 -5 0 -9 3 -9 8 0 4 0 12 0 19 0 7
6 6 18 -4 9 -8 24 -14 32 -13 8 1 20 3 27 3 7 1 10 9 7 17 -5 11 -1 14 12 9
15 -5 16 -4 4 4 -17 13 -30 6 -30 -14 0 -8 -4 -14 -8 -14 -5 0 -8 9 -7 20 2
24 40 54 57 44 7 -4 8 -3 4 4 -3 6 3 16 14 22 18 10 19 14 8 27 -12 15 -11 15
10 2 12 -8 20 -20 17 -26 -2 -7 0 -13 5 -13 9 0 14 22 11 43 0 4 3 7 8 7 6 0
8 10 6 22 -4 16 -2 19 7 10 15 -15 31 -16 22 0 -4 6 -3 8 4 4 11 -6 26 10 27
29 0 6 9 9 19 7 11 -2 15 1 11 7 -3 6 0 9 8 5 8 -3 19 -15 25 -27 l10 -22 -1
23 c-1 12 -4 22 -8 22 -3 0 -5 351 -5 779 2 680 0 778 -13 773 -9 -3 -12 -1
-7 6 5 9 0 9 -19 2 -33 -13 -38 -13 -30 0 3 6 4 10 1 10 -3 0 -8 -5 -11 -10z
m-285 -234 c0 -3 -4 -8 -10 -11 -5 -3 -10 -1 -10 4 0 6 5 11 10 11 6 0 10 -2
10 -4z m20 -1500 c0 -2 -8 -10 -17 -17 -16 -13 -17 -12 -4 4 13 16 21 21 21
13z m75 -25 c-9 -16 -25 -3 -18 15 4 10 9 12 15 6 6 -6 7 -15 3 -21z m-69 0
c-3 -5 1 -14 9 -21 12 -10 12 -14 0 -26 -20 -20 -22 -18 -19 19 3 38 2 37 10
37 3 0 3 -4 0 -9z m-68 -56 c-3 -3 -9 2 -12 12 -6 14 -5 15 5 6 7 -7 10 -15 7
-18z m-228 -183 c0 -13 -12 -22 -22 -16 -10 6 -1 24 13 24 5 0 9 -4 9 -8z
m-170 -36 c0 -2 -8 -10 -17 -17 -16 -13 -17 -12 -4 4 13 16 21 21 21 13z
m-1890 -31 c0 -2 -7 -5 -15 -9 -9 -3 -15 0 -15 9 0 9 6 12 15 9 8 -4 15 -7 15
-9z m181 -188 c-1 -12 -15 -9 -19 4 -3 6 1 10 8 8 6 -3 11 -8 11 -12z m1475
-36 c-12 -12 -19 -12 -28 -3 -9 9 -7 13 5 18 9 3 14 11 10 18 -4 6 1 5 11 -3
15 -13 15 -16 2 -30z m-1179 -86 c0 -8 -4 -12 -9 -9 -5 3 -6 10 -3 15 9 13 12
11 12 -6z m-2 -34 c3 -5 2 -12 -3 -15 -5 -3 -9 1 -9 9 0 17 3 19 12 6z"/>
<path d="M177 3538 c-14 -8 -16 -13 -6 -24 6 -8 16 -14 22 -14 6 0 7 3 4 7 -4
3 -2 12 4 19 14 17 -2 25 -24 12z m18 -8 c-3 -5 -12 -10 -18 -10 -7 0 -6 4 3
10 19 12 23 12 15 0z"/>
<path d="M3776 3541 c-11 -4 -15 -10 -10 -13 5 -4 18 0 29 8 20 15 12 17 -19
5z"/>
<path d="M3490 3529 c0 -5 5 -7 10 -4 6 3 10 8 10 11 0 2 -4 4 -10 4 -5 0 -10
-5 -10 -11z"/>
<path d="M3730 3531 c0 -5 7 -11 14 -14 10 -4 13 -1 9 9 -6 15 -23 19 -23 5z"/>
<path d="M3816 3532 c-3 -5 1 -9 9 -9 8 0 12 4 9 9 -3 4 -7 8 -9 8 -2 0 -6 -4
-9 -8z"/>
<path d="M670 3509 c-7 -11 -10 -23 -7 -25 2 -2 9 7 15 21 14 30 7 33 -8 4z"/>
<path d="M3516 3508 c3 -5 10 -6 15 -3 5 4 9 1 9 -4 0 -6 9 -11 19 -11 11 0
22 -6 24 -12 4 -10 6 -10 6 0 1 8 -8 16 -19 19 -11 3 -20 9 -20 14 0 4 -9 7
-19 6 -11 0 -17 -5 -15 -9z"/>
<path d="M164 3480 c0 -13 4 -16 10 -10 7 7 7 13 0 20 -6 6 -10 3 -10 -10z"/>
<path d="M1955 3480 c10 -11 20 -20 23 -20 3 0 -3 9 -13 20 -10 11 -20 20 -23
20 -3 0 3 -9 13 -20z"/>
<path d="M4360 3491 c0 -6 4 -13 10 -16 6 -3 7 1 4 9 -7 18 -14 21 -14 7z"/>
<path d="M3545 3470 c4 -6 11 -8 16 -5 14 9 11 15 -7 15 -8 0 -12 -5 -9 -10z"/>
<path d="M4939 3453 c6 -12 11 -35 11 -52 0 -37 16 -41 22 -6 3 15 1 22 -5 18
-6 -4 -8 2 -4 16 3 13 3 20 0 17 -3 -3 -12 2 -20 12 -13 15 -13 15 -4 -5z"/>
<path d="M1921 3443 c-5 -10 -12 -17 -15 -15 -17 7 -17 0 0 -13 22 -16 84 -20
84 -5 0 6 -12 15 -27 21 -22 8 -24 12 -13 19 13 8 12 10 -2 10 -9 0 -21 -8
-27 -17z"/>
<path d="M990 3419 c0 -15 18 -19 23 -6 3 8 -1 14 -9 14 -8 0 -14 -4 -14 -8z"/>
<path d="M1850 3380 c0 -5 7 -7 15 -4 8 4 15 8 15 10 0 2 -7 4 -15 4 -8 0 -15
-4 -15 -10z"/>
<path d="M4966 3344 c-8 -20 0 -32 14 -18 5 5 5 15 1 22 -6 11 -10 10 -15 -4z"/>
<path d="M122 3336 c0 -6 -3 -23 -5 -39 -2 -15 -1 -29 2 -32 4 -2 8 4 9 13 3
30 7 47 14 58 4 6 1 11 -6 11 -7 0 -13 -5 -14 -11z"/>
<path d="M1710 3313 c0 -7 -4 -13 -10 -13 -5 0 -10 -5 -10 -12 0 -6 7 -4 18 5
10 10 21 15 24 12 2 -3 5 1 5 8 0 8 -6 14 -14 14 -7 0 -13 -6 -13 -14z"/>
<path d="M4980 3310 c0 -6 -5 -8 -12 -4 -10 6 -10 5 -1 -8 7 -8 9 -19 5 -23
-4 -5 -1 -5 6 -1 13 8 15 2 6 -31 -4 -13 -11 -20 -18 -16 -6 3 -6 0 1 -7 18
-19 44 16 33 45 -4 11 -5 25 -3 32 2 6 -1 14 -6 18 -6 3 -11 1 -11 -5z"/>
<path d="M4099 3258 c4 -28 6 -29 9 -9 2 13 0 27 -5 32 -6 6 -7 -3 -4 -23z"/>
<path d="M4900 3253 c0 -16 5 -35 10 -43 7 -11 10 -4 10 28 0 23 -4 42 -10 42
-5 0 -10 -12 -10 -27z"/>
<path d="M1635 3250 c-3 -5 -1 -10 4 -10 6 0 11 5 11 10 0 6 -2 10 -4 10 -3 0
-8 -4 -11 -10z"/>
<path d="M104 3214 c0 -21 3 -30 8 -22 10 16 10 45 1 51 -5 3 -8 -10 -9 -29z"/>
<path d="M1609 3213 c-13 -17 -13 -17 6 -3 11 8 22 16 24 17 2 2 0 3 -6 3 -6
0 -17 -8 -24 -17z"/>
<path d="M5005 3220 c-3 -5 -1 -10 4 -10 6 0 11 5 11 10 0 6 -2 10 -4 10 -3 0
-8 -4 -11 -10z"/>
<path d="M1555 3202 c-16 -2 -34 -10 -38 -18 -5 -8 -11 -13 -15 -10 -4 2 -15
-4 -24 -14 -15 -14 -15 -17 -3 -17 8 0 15 5 15 10 0 5 6 7 14 4 8 -3 17 1 20
9 3 8 13 14 23 14 19 0 51 17 43 22 -3 2 -18 2 -35 0z"/>
<path d="M5011 3162 c0 -7 -5 -10 -11 -7 -14 9 -12 -8 4 -30 13 -18 14 -18 26
4 6 13 7 21 2 17 -6 -3 -13 2 -15 11 -3 10 -5 12 -6 5z"/>
<path d="M581 3134 c0 -11 3 -14 6 -6 3 7 2 16 -1 19 -3 4 -6 -2 -5 -13z"/>
<path d="M993 3080 c0 -25 2 -35 4 -22 2 12 2 32 0 45 -2 12 -4 2 -4 -23z"/>
<path d="M81 3094 c0 -11 3 -14 6 -6 3 7 2 16 -1 19 -3 4 -6 -2 -5 -13z"/>
<path d="M83 2990 c0 -30 2 -43 4 -27 2 15 2 39 0 55 -2 15 -4 2 -4 -28z"/>
<path d="M1000 2948 c0 -30 -5 -68 -10 -84 -6 -18 -7 -53 -2 -89 7 -56 8 -51
16 79 4 76 5 141 2 144 -3 3 -6 -19 -6 -50z"/>
<path d="M73 2840 c0 -25 2 -35 4 -22 2 12 2 32 0 45 -2 12 -4 2 -4 -23z"/>
<path d="M961 2834 c0 -11 3 -14 6 -6 3 7 2 16 -1 19 -3 4 -6 -2 -5 -13z"/>
<path d="M5043 2705 c0 -22 2 -30 4 -17 2 12 2 30 0 40 -3 9 -5 -1 -4 -23z"/>
<path d="M4102 2670 c0 -19 2 -27 5 -17 2 9 2 25 0 35 -3 9 -5 1 -5 -18z"/>
<path d="M5042 2640 c0 -14 2 -19 5 -12 2 6 2 18 0 25 -3 6 -5 1 -5 -13z"/>
<path d="M963 2600 c0 -25 2 -35 4 -22 2 12 2 32 0 45 -2 12 -4 2 -4 -23z"/>
<path d="M990 2482 c0 -93 4 -162 9 -162 10 0 7 307 -3 318 -3 3 -6 -67 -6
-156z"/>
<path d="M5043 2575 c0 -22 2 -30 4 -17 2 12 2 30 0 40 -3 9 -5 -1 -4 -23z"/>
<path d="M82 2530 c0 -14 2 -19 5 -12 2 6 2 18 0 25 -3 6 -5 1 -5 -13z"/>
<path d="M91 2440 c0 -8 4 -22 9 -30 12 -18 12 -2 0 25 -6 13 -9 15 -9 5z"/>
<path d="M962 2350 c0 -14 2 -19 5 -12 2 6 2 18 0 25 -3 6 -5 1 -5 -13z"/>
<path d="M112 2300 c0 -8 4 -26 8 -40 6 -20 8 -21 8 -5 0 11 -3 29 -8 40 -5
12 -8 14 -8 5z"/>
<path d="M4995 2300 c3 -5 8 -10 11 -10 2 0 4 5 4 10 0 6 -5 10 -11 10 -5 0
-7 -4 -4 -10z"/>
<path d="M1003 2250 c0 -25 2 -35 4 -22 2 12 2 32 0 45 -2 12 -4 2 -4 -23z"/>
<path d="M4984 2264 c-4 -10 -9 -22 -11 -26 -2 -5 0 -8 5 -8 10 0 24 41 17 48
-3 3 -8 -4 -11 -14z"/>
<path d="M585 2239 c-4 -6 -5 -12 -2 -15 2 -3 7 2 10 11 7 17 1 20 -8 4z"/>
<path d="M4961 2174 c0 -11 3 -14 6 -6 3 7 2 16 -1 19 -3 4 -6 -2 -5 -13z"/>
<path d="M998 2110 c-7 -24 -3 -38 8 -28 3 4 4 17 2 30 l-3 23 -7 -25z"/>
<path d="M3865 2120 c-3 -5 -1 -10 4 -10 6 0 11 5 11 10 0 6 -2 10 -4 10 -3 0
-8 -4 -11 -10z"/>
<path d="M3851 2093 c-1 -18 13 -23 29 -11 12 8 12 9 -2 5 -9 -3 -19 -1 -22 6
-3 9 -5 9 -5 0z"/>
<path d="M161 2074 c0 -11 3 -14 6 -6 3 7 2 16 -1 19 -3 4 -6 -2 -5 -13z"/>
<path d="M4924 2039 c0 -13 3 -15 13 -7 7 6 13 12 13 13 0 2 -6 5 -13 8 -7 3
-13 -3 -13 -14z"/>
<path d="M4884 1950 c0 -13 4 -16 10 -10 7 7 7 13 0 20 -6 6 -10 3 -10 -10z"/>
<path d="M4490 1941 c-8 -6 -18 -7 -24 -4 -5 4 -7 -1 -3 -12 6 -14 3 -16 -13
-12 -11 3 -18 1 -14 -4 3 -5 -1 -9 -8 -9 -9 0 -9 -3 2 -10 8 -5 20 -10 25 -10
6 0 4 4 -3 9 -11 6 -8 10 10 14 12 4 29 15 36 27 14 23 13 24 -8 11z"/>
<path d="M197 1915 c4 -20 33 -58 33 -43 0 7 -31 68 -34 68 -2 0 -1 -11 1 -25z"/>
<path d="M1713 1904 c-6 -13 -7 -24 -3 -24 9 0 25 39 18 45 -2 2 -8 -7 -15
-21z"/>
<path d="M1679 1904 c-7 -8 -21 -13 -31 -11 -15 4 -16 2 -7 -15 6 -11 13 -17
16 -14 4 3 13 0 22 -7 14 -11 14 -10 2 6 -12 15 -11 20 4 37 10 11 16 20 13
20 -3 0 -11 -7 -19 -16z"/>
<path d="M4870 1905 c0 -8 2 -15 4 -15 2 0 6 7 10 15 3 8 1 15 -4 15 -6 0 -10
-7 -10 -15z"/>
<path d="M3634 1893 c2 -10 6 -17 10 -16 15 3 16 11 2 22 -12 10 -14 9 -12 -6z"/>
<path d="M3583 1886 c0 -8 6 -12 15 -8 11 4 13 1 7 -8 -5 -9 -4 -11 4 -6 9 6
9 11 0 22 -15 18 -26 18 -26 0z"/>
<path d="M4360 1836 c7 -7 13 -7 20 0 6 6 3 10 -10 10 -13 0 -16 -4 -10 -10z"/>
<path d="M594 1793 c1 -19 5 -28 10 -23 6 6 5 18 -1 32 -10 21 -10 21 -9 -9z"/>
<path d="M1510 1776 c0 -15 5 -17 28 -11 15 3 32 11 37 16 6 6 -2 6 -19 -1
-23 -8 -31 -8 -38 2 -5 9 -8 8 -8 -6z"/>
<path d="M4800 1759 c0 -5 -4 -7 -10 -4 -11 7 -14 -8 -3 -18 7 -8 33 11 33 24
0 5 -4 9 -10 9 -5 0 -10 -5 -10 -11z"/>
<path d="M5321 1744 c0 -11 3 -14 6 -6 3 7 2 16 -1 19 -3 4 -6 -2 -5 -13z"/>
<path d="M270 1741 c0 -5 5 -13 10 -16 6 -3 10 -2 10 4 0 5 -4 13 -10 16 -5 3
-10 2 -10 -4z"/>
<path d="M459 1736 c-1 -3 -2 -11 -3 -17 0 -6 -12 -17 -26 -24 -30 -17 -21
-19 14 -4 27 13 40 35 26 44 -6 4 -11 4 -11 1z"/>
<path d="M4770 1695 c0 -8 4 -15 8 -15 5 0 9 7 9 15 0 8 -4 15 -9 15 -4 0 -8
-7 -8 -15z"/>
<path d="M297 1694 c-9 -10 2 -24 18 -24 9 0 12 6 9 15 -6 16 -17 19 -27 9z"/>
<path d="M3320 1676 c7 -7 14 -6 21 1 9 9 7 12 -9 10 -14 -1 -18 -5 -12 -11z"/>
<path d="M3120 1580 c0 -5 9 -8 20 -7 21 1 18 10 -5 13 -8 1 -15 -2 -15 -6z"/>
<path d="M3090 1560 c-9 -6 -10 -10 -3 -10 6 0 15 5 18 10 8 12 4 12 -15 0z"/>
<path d="M1850 1549 c0 -5 5 -7 10 -4 6 3 10 8 10 11 0 2 -4 4 -10 4 -5 0 -10
-5 -10 -11z"/>
<path d="M1883 1545 c0 -8 4 -12 9 -9 5 3 6 10 3 15 -9 13 -12 11 -12 -6z"/>
<path d="M4660 1510 c0 -5 5 -10 11 -10 5 0 7 5 4 10 -3 6 -8 10 -11 10 -2 0
-4 -4 -4 -10z"/>
<path d="M3806 1484 c-3 -9 -11 -12 -18 -8 -9 5 -9 2 1 -9 16 -20 43 -5 34 19
-7 18 -9 18 -17 -2z"/>
<path d="M2517 1476 c-4 -10 1 -12 14 -9 23 6 24 9 5 16 -8 3 -17 0 -19 -7z"/>
<path d="M710 1450 c0 -5 5 -10 11 -10 5 0 7 5 4 10 -3 6 -8 10 -11 10 -2 0
-4 -4 -4 -10z"/>
<path d="M3756 1449 c2 -4 -2 -10 -8 -12 -8 -4 -9 -6 -2 -6 6 -1 17 5 23 12 8
10 7 14 -4 14 -8 0 -12 -4 -9 -8z"/>
<path d="M5161 1444 c0 -11 3 -14 6 -6 3 7 2 16 -1 19 -3 4 -6 -2 -5 -13z"/>
<path d="M1763 1425 c0 -8 4 -12 8 -9 4 2 10 0 14 -6 3 -5 17 -9 30 -8 13 1
21 6 18 11 -3 5 -14 6 -25 4 -11 -3 -21 0 -25 9 -7 18 -20 18 -20 -1z"/>
<path d="M2905 1427 c-15 -12 -16 -15 -4 -22 8 -5 11 -5 7 0 -4 4 0 14 10 21
23 18 11 18 -13 1z"/>
<path d="M3713 1405 c0 -7 6 -11 14 -8 7 3 13 6 13 8 0 2 -6 5 -13 8 -8 3 -14
-1 -14 -8z"/>
<path d="M5130 1398 c-11 -12 -20 -27 -20 -32 0 -6 6 -4 13 4 7 8 19 16 27 18
8 2 20 8 25 13 7 7 3 8 -9 3 -13 -5 -17 -4 -12 4 12 19 -2 14 -24 -10z"/>
<path d="M1881 1393 c3 -21 -3 -24 -18 -12 -16 13 -17 12 -4 -4 10 -13 17 -15
27 -6 8 6 11 15 8 20 -6 11 -14 12 -13 2z"/>
<path d="M660 1379 c0 -5 5 -7 10 -4 6 3 10 8 10 11 0 2 -4 4 -10 4 -5 0 -10
-5 -10 -11z"/>
<path d="M2800 1380 c0 -5 5 -10 11 -10 5 0 7 -5 3 -12 -4 -7 -3 -8 5 -4 9 6
9 11 0 22 -14 17 -19 18 -19 4z"/>
<path d="M2736 1351 c-3 -5 1 -11 9 -15 8 -3 15 -1 15 4 0 13 -18 22 -24 11z"/>
<path d="M5099 1338 c-1 -7 -1 -16 0 -20 0 -5 -5 -8 -12 -8 -8 0 -14 -7 -14
-15 0 -24 32 9 34 35 2 21 -6 29 -8 8z"/>
<path d="M513 1315 c0 -8 4 -12 9 -9 5 3 6 10 3 15 -9 13 -12 11 -12 -6z"/>
<path d="M1950 1319 c0 -5 5 -7 10 -4 6 3 10 8 10 11 0 2 -4 4 -10 4 -5 0 -10
-5 -10 -11z"/>
<path d="M4460 1295 c-10 -12 -10 -15 3 -15 19 0 31 16 18 24 -5 3 -14 -1 -21
-9z"/>
<path d="M1280 1280 c0 -5 5 -10 11 -10 5 0 7 5 4 10 -3 6 -8 10 -11 10 -2 0
-4 -4 -4 -10z"/>
<path d="M1241 1249 c-19 -16 -21 -20 -7 -25 9 -3 13 -11 9 -17 -3 -6 -1 -7 6
-3 8 6 9 12 2 20 -6 7 -8 16 -4 19 3 4 11 -1 18 -10 11 -14 12 -13 10 5 -2 31
-7 33 -34 11z"/>
<path d="M2052 1251 c-11 -7 -11 -9 0 -14 9 -3 15 1 15 9 0 8 -1 14 -1 14 -1
0 -7 -4 -14 -9z"/>
<path d="M3425 1220 c-4 -6 -11 -7 -17 -4 -6 4 -8 2 -5 -3 4 -6 0 -13 -8 -17
-8 -3 -15 -11 -15 -17 0 -8 7 -6 18 4 13 12 21 14 29 6 9 -9 11 -7 9 7 -2 11
2 22 8 26 8 6 8 8 -1 8 -6 0 -15 -5 -18 -10z"/>
<path d="M584 1206 c-3 -9 -11 -13 -18 -9 -6 4 -4 -2 4 -13 22 -29 24 -30 17
-13 -3 9 0 22 6 28 6 6 8 14 4 17 -4 4 -9 -1 -13 -10z"/>
<path d="M2100 1210 c0 -5 5 -10 11 -10 5 0 7 5 4 10 -3 6 -8 10 -11 10 -2 0
-4 -4 -4 -10z"/>
<path d="M1175 1201 c-3 -5 0 -13 6 -17 7 -4 9 -3 5 4 -3 5 0 13 6 15 9 4 10
6 1 6 -6 1 -14 -3 -18 -8z"/>
<path d="M1115 1180 c6 -8 10 -18 10 -22 0 -3 4 -10 9 -15 5 -4 6 -3 3 3 -4 7
0 14 8 18 8 3 15 0 15 -6 0 -6 2 -9 5 -6 3 3 2 13 -1 22 -5 13 -9 15 -15 5 -6
-10 -11 -10 -25 2 -16 12 -17 12 -9 -1z"/>
<path d="M4986 1172 c-2 -4 -1 -14 3 -21 6 -9 11 -10 15 -2 4 6 2 11 -4 11 -6
0 -8 5 -5 10 3 6 4 10 1 10 -3 0 -7 -4 -10 -8z"/>
<path d="M576 1133 c-6 -14 -5 -15 5 -6 7 7 10 15 7 18 -3 3 -9 -2 -12 -12z"/>
<path d="M1079 1133 c-12 -16 -12 -17 2 -6 12 10 18 10 28 0 10 -9 11 -8 6 6
-4 9 -11 17 -15 17 -4 0 -14 -8 -21 -17z"/>
<path d="M3300 1140 c-12 -7 -10 -9 7 -7 12 0 19 5 17 9 -6 10 -6 10 -24 -2z"/>
<path d="M4936 1142 c-4 -7 -2 -12 4 -12 7 0 5 -7 -4 -16 -9 -8 -16 -21 -16
-27 0 -7 5 -4 11 6 6 9 16 14 22 11 7 -4 9 -4 5 1 -4 4 0 13 9 20 13 9 13 14
3 20 -9 5 -11 4 -6 -3 4 -7 3 -12 -3 -12 -5 0 -11 5 -13 12 -3 9 -6 9 -12 0z"/>
<path d="M3246 1105 c-9 -26 -7 -32 5 -12 6 10 9 21 6 23 -2 3 -7 -2 -11 -11z"/>
<path d="M3210 1081 c-14 -26 -13 -38 2 -23 11 11 20 42 12 42 -2 0 -8 -9 -14
-19z"/>
<path d="M4903 1065 c0 -8 4 -12 9 -9 5 3 6 10 3 15 -9 13 -12 11 -12 -6z"/>
<path d="M685 1060 c-3 -6 1 -7 9 -4 18 7 21 14 7 14 -6 0 -13 -4 -16 -10z"/>
<path d="M2283 1055 c0 -7 6 -11 14 -8 7 3 13 6 13 8 0 2 -6 5 -13 8 -8 3 -14
-1 -14 -8z"/>
<path d="M3175 1051 c-3 -5 -2 -12 3 -15 5 -3 9 1 9 9 0 17 -3 19 -12 6z"/>
<path d="M4856 1032 c-3 -5 1 -9 9 -9 8 0 12 4 9 9 -3 4 -7 8 -9 8 -2 0 -6 -4
-9 -8z"/>
<path d="M916 1013 c-6 -14 -5 -15 5 -6 7 7 10 15 7 18 -3 3 -9 -2 -12 -12z"/>
<path d="M2406 1004 c-3 -9 1 -11 11 -7 11 4 14 2 11 -8 -3 -8 -11 -13 -17
-11 -7 1 -9 -2 -6 -8 9 -15 45 17 39 34 -6 17 -32 16 -38 0z"/>
<path d="M4166 1012 c-3 -5 1 -9 9 -9 8 0 12 4 9 9 -3 4 -7 8 -9 8 -2 0 -6 -4
-9 -8z"/>
<path d="M4833 1002 c1 -12 6 -18 15 -15 7 3 10 9 5 12 -4 3 -11 10 -15 15 -4
4 -6 -1 -5 -12z"/>
<path d="M762 990 c7 -11 16 -20 20 -20 5 0 3 9 -4 20 -7 11 -16 20 -20 20 -5
0 -3 -9 4 -20z"/>
<path d="M895 980 c-3 -6 1 -7 9 -4 18 7 21 14 7 14 -6 0 -13 -4 -16 -10z"/>
<path d="M4770 975 c-7 -8 -17 -12 -23 -8 -6 3 -7 1 -3 -5 5 -9 12 -8 26 1 11
6 20 15 20 19 0 12 -6 10 -20 -7z"/>
<path d="M2445 970 c-3 -6 1 -7 9 -4 18 7 21 14 7 14 -6 0 -13 -4 -16 -10z"/>
<path d="M4795 960 c-16 -17 -16 -20 -3 -15 9 4 19 13 22 21 7 19 2 18 -19 -6z"/>
<path d="M1380 950 c-8 -5 -10 -10 -5 -10 6 0 17 5 25 10 8 5 11 10 5 10 -5 0
-17 -5 -25 -10z"/>
<path d="M1416 945 c-11 -8 -15 -15 -9 -15 6 0 16 7 23 15 16 19 11 19 -14 0z"/>
<path d="M3003 933 c-3 -10 -8 -22 -11 -27 -3 -5 0 -6 5 -3 11 7 25 47 17 47
-3 0 -7 -8 -11 -17z"/>
<path d="M2565 909 c-9 -28 -2 -33 13 -9 6 11 8 21 3 25 -5 3 -13 -4 -16 -16z"/>
<path d="M2970 921 c0 -7 -5 -9 -12 -5 -7 5 -8 3 -3 -5 5 -9 10 -10 18 -2 6 6
8 14 4 18 -4 3 -7 1 -7 -6z"/>
<path d="M4780 921 c0 -6 4 -13 10 -16 6 -3 7 1 4 9 -7 18 -14 21 -14 7z"/>
<path d="M1464 908 c-4 -5 -3 -12 0 -15 3 -4 6 -1 6 6 0 7 5 9 11 5 8 -4 7 -9
-2 -15 -7 -4 -18 -4 -24 1 -6 5 -17 5 -24 1 -9 -6 -10 -10 -2 -15 17 -11 3
-26 -16 -19 -12 5 -14 3 -8 -8 8 -12 6 -12 -8 0 -10 8 -17 9 -17 3 0 -6 7 -15
16 -20 12 -6 8 -9 -16 -9 -21 0 -27 3 -18 10 9 6 8 7 -5 3 -10 -3 -21 -6 -23
-6 -3 0 -2 -6 2 -12 5 -8 0 -7 -11 2 -10 8 -16 10 -12 4 7 -13 -49 -67 -62
-59 -5 2 -14 -2 -21 -10 -7 -8 -17 -12 -24 -8 -6 3 -8 3 -4 -1 3 -4 -7 -20
-23 -36 -24 -23 -27 -29 -14 -34 11 -4 14 -2 9 6 -4 7 -3 8 4 4 6 -4 9 -13 6
-20 -3 -7 2 -19 10 -26 9 -7 13 -16 10 -21 -3 -5 3 -6 12 -2 12 4 15 3 10 -5
-5 -8 -2 -10 8 -6 9 3 13 11 9 17 -3 6 -1 7 6 3 6 -4 9 -11 6 -16 -3 -5 8 -18
25 -30 16 -12 30 -19 30 -16 0 3 10 -5 23 -17 13 -12 21 -26 19 -31 -3 -5 0
-6 7 -2 6 4 9 11 7 15 -3 4 1 8 8 8 8 0 12 -6 9 -14 -7 -17 23 -17 34 0 4 6 8
15 8 19 0 3 2 9 5 12 3 3 6 -10 6 -29 0 -27 -3 -32 -14 -23 -10 9 -12 6 -8
-15 2 -14 -1 -28 -7 -30 -6 -2 -4 -6 5 -10 13 -4 16 -1 13 14 -4 20 9 26 20 9
3 -5 15 -10 26 -10 10 0 19 -5 19 -12 0 -6 3 -8 7 -5 10 11 43 -24 36 -37 -11
-17 -12 -37 -2 -30 5 3 7 9 4 14 -3 5 4 14 16 20 13 7 19 8 15 2 -5 -9 28 -28
44 -25 3 0 14 -8 25 -19 19 -19 19 -19 -4 -25 -16 -4 -19 -8 -10 -13 7 -5 20
0 31 13 15 17 18 18 14 5 -3 -11 -1 -15 8 -12 8 3 37 -6 65 -21 29 -14 57 -22
64 -18 7 4 6 0 -2 -10 -12 -15 -12 -17 1 -12 8 3 45 -6 84 -21 116 -44 218
-75 232 -69 7 2 11 1 8 -3 -4 -7 91 -35 154 -46 8 -2 31 -6 50 -9 38 -8 69
-13 138 -23 31 -5 40 -9 31 -16 -13 -8 21 -4 58 7 8 3 12 53 12 169 2 183 -3
216 -29 216 -9 0 -53 9 -96 19 -84 21 -125 29 -161 30 -12 1 -28 7 -36 15 -8
8 -29 16 -48 18 -19 1 -37 7 -40 11 -4 5 -18 10 -32 10 -14 1 -23 6 -20 11 3
4 -5 5 -18 1 -20 -7 -22 -6 -12 6 10 12 6 15 -21 14 -18 -1 -39 -5 -47 -9 -8
-4 -6 -1 3 6 15 13 14 15 -14 26 -17 6 -35 9 -41 5 -6 -4 -7 -1 -2 7 6 10 1
12 -18 8 -15 -3 -24 -2 -22 2 3 4 -12 15 -33 25 -86 40 -119 56 -146 74 -17
11 -33 18 -38 15 -7 -5 -12 10 -9 29 1 5 -4 5 -10 2 -6 -4 -24 3 -41 15 -16
12 -32 20 -34 17 -3 -2 -19 9 -35 24 -17 16 -35 26 -40 23 -5 -3 -8 0 -7 8 2
7 -3 12 -9 11 -7 -2 -13 1 -13 5 0 12 -29 11 -36 0z m-218 -163 c-1 -8 -5 -17
-8 -21 -5 -4 -4 16 1 34 3 9 9 -1 7 -13z m114 -189 c0 -11 -19 -15 -25 -6 -3
5 1 10 9 10 9 0 16 -2 16 -4z m185 -104 c-3 -3 -11 0 -18 7 -9 10 -8 11 6 5
10 -3 15 -9 12 -12z"/>
<path d="M3870 871 c0 -5 9 -7 20 -4 11 3 20 7 20 9 0 2 -9 4 -20 4 -11 0 -20
-4 -20 -9z"/>
<path d="M2644 845 c1 -8 9 -21 16 -28 8 -6 11 -8 7 -3 -4 5 -1 16 5 25 7 9 8
13 4 9 -5 -4 -15 -3 -22 3 -9 7 -12 6 -10 -6z"/>
<path d="M2686 834 c-4 -9 -4 -19 -1 -22 3 -3 5 0 5 7 0 8 6 11 16 7 14 -5 15
-4 4 9 -16 19 -16 19 -24 -1z"/>
<path d="M2846 842 c-3 -5 1 -15 8 -21 11 -10 14 -9 12 3 -3 21 -13 29 -20 18z"/>
<path d="M4654 833 c-11 -8 -18 -21 -16 -29 2 -8 -5 -14 -15 -14 -15 0 -16 -2
-3 -10 10 -6 21 -3 36 11 11 10 24 16 27 12 4 -3 7 -1 7 6 0 7 -9 9 -27 5 -27
-6 -27 -6 -8 9 10 8 25 13 32 10 7 -3 13 -1 13 4 0 14 -25 12 -46 -4z"/>
<path d="M2720 803 c8 -3 20 -10 27 -15 7 -6 14 -5 19 3 4 7 3 9 -4 5 -6 -3
-13 -2 -17 4 -3 5 -14 10 -23 9 -14 0 -14 -2 -2 -6z"/>
<path d="M3815 781 c-3 -5 -2 -12 3 -15 5 -3 9 1 9 9 0 17 -3 19 -12 6z"/>
<path d="M3780 759 c0 -5 5 -7 10 -4 6 3 10 8 10 11 0 2 -4 4 -10 4 -5 0 -10
-5 -10 -11z"/>
<path d="M4586 753 c-6 -14 -5 -15 5 -6 7 7 10 15 7 18 -3 3 -9 -2 -12 -12z"/>
<path d="M2770 740 c-9 -6 -10 -10 -3 -10 6 0 15 5 18 10 8 12 4 12 -15 0z"/>
<path d="M4612 741 c-11 -7 -11 -9 0 -14 9 -3 15 1 15 9 0 8 -1 14 -1 14 -1 0
-7 -4 -14 -9z"/>
<path d="M1121 703 c-1 -12 4 -25 9 -28 12 -7 12 2 0 30 -8 19 -9 19 -9 -2z"/>
<path d="M4510 690 c0 -5 5 -10 11 -10 5 0 7 5 4 10 -3 6 -8 10 -11 10 -2 0
-4 -4 -4 -10z"/>
<path d="M1125 650 c3 -5 8 -10 11 -10 2 0 4 5 4 10 0 6 -5 10 -11 10 -5 0 -7
-4 -4 -10z"/>
<path d="M1150 655 c0 -2 10 -10 23 -16 20 -11 21 -11 8 4 -13 16 -31 23 -31
12z"/>
<path d="M4427 627 c-2 -6 1 -17 8 -24 10 -9 17 -8 31 8 19 21 6 27 -15 7 -11
-11 -13 -10 -8 5 7 19 -8 24 -16 4z"/>
<path d="M1140 615 c7 -9 15 -13 17 -11 7 7 -7 26 -19 26 -6 0 -6 -6 2 -15z"/>
<path d="M1191 591 c-8 -5 -9 -11 -3 -15 5 -3 12 1 16 9 6 17 6 18 -13 6z"/>
<path d="M1215 581 c-6 -11 -5 -12 15 -15 5 0 15 -7 22 -13 15 -16 28 -17 28
-3 0 6 -5 10 -12 10 -6 0 -19 7 -29 16 -11 10 -19 12 -24 5z"/>
<path d="M4294 521 c-5 -5 -18 -11 -29 -14 l-20 -5 20 -1 c22 -1 52 15 44 23
-3 3 -10 2 -15 -3z"/>
<path d="M1300 510 c0 -4 9 -10 20 -13 11 -3 20 -2 20 3 0 4 -9 10 -20 13 -11
3 -20 2 -20 -3z"/>
<path d="M4120 419 c-13 -23 2 -26 20 -4 7 8 17 12 24 8 6 -3 7 -2 3 2 -14 16
-37 13 -47 -6z"/>
<path d="M1436 418 c3 -4 11 -5 19 -1 21 7 19 12 -4 10 -11 0 -18 -5 -15 -9z"/>
<path d="M4034 382 c5 -9 1 -15 -13 -19 -23 -6 -27 -18 -9 -29 7 -5 8 -3 3 6
-6 9 -1 10 16 5 17 -4 20 -3 10 3 -11 8 -11 11 4 13 17 4 17 5 0 19 -13 10
-16 11 -11 2z"/>
<path d="M3960 340 c-8 -5 -10 -10 -5 -10 6 0 17 5 25 10 8 5 11 10 5 10 -5 0
-17 -5 -25 -10z"/>
<path d="M1691 311 c-11 -7 -9 -10 8 -16 13 -4 25 -4 28 -1 4 3 -1 6 -11 6 -9
0 -14 5 -11 10 8 12 4 12 -14 1z"/>
<path d="M1753 265 c0 -8 4 -12 9 -9 5 3 6 10 3 15 -9 13 -12 11 -12 -6z"/>
<path d="M3835 270 c-2 -4 7 -6 21 -4 35 3 41 12 9 12 -14 0 -27 -4 -30 -8z"/>
<path d="M1897 209 c7 -7 15 -10 18 -7 3 3 -2 9 -12 12 -14 6 -15 5 -6 -5z"/>
<path d="M3678 203 c7 -3 16 -2 19 1 4 3 -2 6 -13 5 -11 0 -14 -3 -6 -6z"/>
<path d="M3625 190 c-3 -5 -1 -10 4 -10 6 0 11 5 11 10 0 6 -2 10 -4 10 -3 0
-8 -4 -11 -10z"/>
<path d="M2008 173 c7 -3 16 -2 19 1 4 3 -2 6 -13 5 -11 0 -14 -3 -6 -6z"/>
<path d="M2100 146 c0 -2 7 -7 16 -10 8 -3 12 -2 9 4 -6 10 -25 14 -25 6z"/>
<path d="M3470 140 c0 -5 4 -10 9 -10 6 0 13 5 16 10 3 6 -1 10 -9 10 -9 0
-16 -4 -16 -10z"/>
<path d="M2150 130 c0 -4 12 -10 28 -12 15 -3 36 -8 47 -12 19 -7 19 -7 2 4
-26 17 -77 30 -77 20z"/>
<path d="M3420 120 c0 -11 4 -20 9 -20 5 0 7 9 4 20 -3 11 -7 20 -9 20 -2 0
-4 -9 -4 -20z"/>
<path d="M2250 115 c0 -2 13 -7 28 -13 21 -7 29 -7 29 2 0 6 -13 11 -29 12
-15 1 -28 0 -28 -1z"/>
<path d="M3360 116 c0 -2 7 -9 15 -16 9 -7 15 -8 15 -2 0 5 -7 12 -15 16 -8 3
-15 4 -15 2z"/>
<path d="M3235 90 c-25 -11 1 -11 35 0 20 6 21 8 5 8 -11 0 -29 -3 -40 -8z"/>
</g>
</svg>
