<svg xmlns="http://www.w3.org/2000/svg" id="Capa_1" data-name="Capa 1" viewBox="0 0 407.89 204">
  <defs>
    <linearGradient id="Degradado_sin_nombre_8" x1="167.95" x2="36.43" y1="36.43" y2="167.95" gradientUnits="userSpaceOnUse">
      <stop offset="0" stop-color="#ff0"/>
      <stop offset="1" stop-color="#ed1e79"/>
    </linearGradient>
    <style>
      .cls-1{fill:#fff}.cls-3{fill:#47484c}
    </style>
  </defs>
  <path d="M102 204a101.92 101.92 0 1 1 100.13-82.49 12 12 0 0 1-.47 2.29A102 102 0 0 1 102 204Zm82.5-85.63Z" class="cls-1"/>
  <path d="M206 142.49a16.32 16.32 0 0 1-12.59-5.29 17.1 17.1 0 0 1-4.41-11.64 17.36 17.36 0 0 1 2.61-9.32 19.91 19.91 0 0 1 1.25-1.78 12.32 12.32 0 0 1-2.51-7.63c0-6 3.35-10.92 9.19-13.57a31.41 31.41 0 0 1 13.07-2.59A26.07 26.07 0 0 1 224.15 93c3.93 1.91 6.65 4.52 8.08 7.77a23.25 23.25 0 0 1 1.59 9.48l-.08 9v2.84a9.79 9.79 0 0 1 5.6 8.81 10.12 10.12 0 0 1-4.9 8.61c-1.57 1-3.31 1.51-6.93 2.19-5.7 1.07-10.59 1.1-14.17-.62a19.89 19.89 0 0 1-7.34 1.41Z" class="cls-1"/>
  <path d="M291.84 142c-.45 0-.94 0-1.53-.08q-2.8-.26-6.06-.26c-1.12 0-2.53.06-4.2.19-2 .14-2.32.15-2.69.15a13.16 13.16 0 0 1-3.23-.38 12.46 12.46 0 0 1-3.13.38c-.4 0-.91 0-3.49-.19s-3.8-.19-4.23-.19c-1.36 0-3 .09-5 .26-.79.08-1.49.12-2.09.12a12.25 12.25 0 0 1-3.05-.37 11.64 11.64 0 0 1-2.94.37 14.33 14.33 0 0 1-2.31-.21c-.53-.06-2-.16-5.41-.16a45.37 45.37 0 0 0-5.35.22h-.31c-.89.08-1.59.12-2.18.12a9.94 9.94 0 0 1-10.24-10.09 9.8 9.8 0 0 1 5.1-8.73c.06-1.75.11-4.44.11-8.57v-3.88a10 10 0 0 1-5.87-9c0-4.74 3.47-9.71 10.09-10 1.1-.06 2.94-.22 5.43-.47 2.88-.29 5.45-.44 7.65-.44a9 9 0 0 1 4.55 1.21 20.49 20.49 0 0 1 14.38.14 15.89 15.89 0 0 1 2.42 1.13q.74-.36 1.49-.67a24.14 24.14 0 0 1 9.25-1.92c7.65 0 12 3.21 14.34 5.9l.08.1c3 3.53 4.46 8.28 4.46 14.11v.13l-.19 12.52a9.81 9.81 0 0 1 4.65 8.36c.04 5.79-4.49 10.2-10.5 10.2Zm6-14.69Zm-68.65-.38Zm4.86-15.21Zm.77-2.08Z" class="cls-1"/>
  <path d="M317.21 142.49a26.13 26.13 0 0 1-9-1.46q-.6-.22-1.21-.48a9.68 9.68 0 0 1-5.22 1.53 9.79 9.79 0 0 1-9.47-7c-.42-1.39-.55-2.61-.55-7.56l.3-27.29c0-4.33 0-7.32-.05-9.39a9.94 9.94 0 0 1-4.71-8.45c0-5.71 4.5-10 10.46-10 .56 0 1.48 0 4.11.2 1.12.06 2.1.09 2.92.1l3.61-.11h.27c5.88 0 10.32 4.25 10.39 9.92V90.87a23.21 23.21 0 0 1 17.12 7.56 25.63 25.63 0 0 1 6.8 17.84 26.14 26.14 0 0 1-3.31 13 26.45 26.45 0 0 1-8.95 9.43 24.83 24.83 0 0 1-13.51 3.79Zm-18.43-68Z" class="cls-1"/>
  <path d="M357.17 142c-.71 0-1.71 0-3.25-.13q-3.9-.25-7.66-.25c-1 0-2 0-3 .15a20.62 20.62 0 0 1-2.73.23c-6.92 0-10.65-5.16-10.65-10a9.77 9.77 0 0 1 5.73-8.92v-.93c0-4.23-.07-8.19-.2-11.75a9.91 9.91 0 0 1-5.54-8.83c0-4.42 3.15-9.42 10.07-10l.74-.07h.28l11.69-.75a9 9 0 0 1 9.57 8.73c.1 3.59.15 10 .15 19v.13l-.07 4.68a9.85 9.85 0 0 1 5.5 8.8c.02 4.75-3.71 9.91-10.63 9.91Zm-15.55-48.32Z" class="cls-1"/>
  <path d="M347.31 101.4a14.44 14.44 0 1 1 10.17-4.23 14.08 14.08 0 0 1-10.17 4.23Zm0-18a3.59 3.59 0 1 0 2.58 1.08 3.85 3.85 0 0 0-2.58-1.08ZM380.71 142.3a26.3 26.3 0 0 1-18.27-6.84 24.45 24.45 0 0 1-7.89-18.65 24.82 24.82 0 0 1 8.21-19 27.18 27.18 0 0 1 18.75-7c7.36 0 13.6 2.28 18.55 6.78a23.8 23.8 0 0 1 7.84 18.11 26.36 26.36 0 0 1-7.64 18.48 26.38 26.38 0 0 1-19.55 8.12ZM337.78 165.84H334a9 9 0 0 1-5.24-1.68 9 9 0 0 1-5.24 1.68h-3.92a9 9 0 0 1-7.83-13.43l9.85-17.41a9 9 0 0 1 7.83-4.57h4.61a9 9 0 0 1 8.8 7.11l3.72 17.46a9 9 0 0 1-8.8 10.89Z" class="cls-1"/>
  <path d="M354.56 165.84h-3.67a9 9 0 0 1-8.89-10.56l3.06-17.36a9 9 0 0 1 8.86-7.44h6.76c4.43 0 7.89 1 10.58 3.21a13.3 13.3 0 0 1 4.9 10.63 14.92 14.92 0 0 1-4.95 11.58 15.82 15.82 0 0 1-8.12 3.74 9 9 0 0 1-8.53 6.2Z" class="cls-1"/>
  <path d="M382.83 165.84h-3.67a9 9 0 0 1-8.86-10.56l3.06-17.36a9 9 0 0 1 8.86-7.44H389c4.43 0 7.89 1 10.58 3.21a13.3 13.3 0 0 1 4.9 10.63 14.92 14.92 0 0 1-4.95 11.58 15.82 15.82 0 0 1-8.12 3.74 9 9 0 0 1-8.58 6.2Z" class="cls-1"/>
  <path d="M102 9a92.6 92.6 0 0 0-58.26 20.52 69.18 69.18 0 0 1 19-8.22s-8.59 3.81-18.64 13.12a55.7 55.7 0 0 1 15-7.56S31.81 40.78 24 77.26a53.73 53.73 0 0 1 5.38-25.51 98.43 98.43 0 0 0-13.07 30.06 65.76 65.76 0 0 1 6.18-28.07A93 93 0 1 0 102 9ZM38 79.84a34.63 34.63 0 0 1 11.67-36.26S37.09 57.37 38 79.84Zm-3.9-2.19S28.82 52.26 53 38.46c0 0-16.86 13.14-18.9 39.19Zm-4.24-1.08s-4.2-31.5 27-44.79c-.02-.01-22.09 13.53-26.99 44.79Z" style="fill:url(#Degradado_sin_nombre_8)"/>
  <path d="M329.45 139.48h4.61l3.72 17.36H334l-.68-3.32h-8l-1.82 3.32h-3.92Zm3.29 11-.86-4.4q-.18-.81-.53-3.42h-.13q-1.29 2.61-1.75 3.42l-2.38 4.4ZM354 139.48h6.76q3.42 0 4.95 1.23a4.35 4.35 0 0 1 1.53 3.61 6.14 6.14 0 0 1-1.92 4.85 7.69 7.69 0 0 1-5.29 1.71h-4.35l-1.06 6h-3.67Zm6 8.28a4 4 0 0 0 2.54-.76 2.68 2.68 0 0 0 .95-2.23q0-2.18-2.58-2.18h-3.77l-.91 5.16ZM382.22 139.48H389q3.42 0 4.95 1.23a4.35 4.35 0 0 1 1.53 3.61 6.14 6.14 0 0 1-1.92 4.85 7.69 7.69 0 0 1-5.29 1.71h-4.37l-1.06 6h-3.67Zm6 8.28a4 4 0 0 0 2.54-.76 2.68 2.68 0 0 0 .95-2.23q0-2.18-2.58-2.18h-3.77l-.91 5.16ZM83.78 81.8h2.56q4.94 10.72 14 33.73 4.16 10.57 5.73 12.82a7 7 0 0 0 5 2.74q1.12.15 1.12 1 0 1.16-1.46 1.16-.79 0-4.09-.26-3.9-.34-6.56-.34t-6.75.3q-3.11.23-4.09.22-1.72 0-1.72-1.09c0-.55.4-.86 1.2-.94q4.61-.41 4.61-3.62A21.4 21.4 0 0 0 92 122a69.76 69.76 0 0 0-2.88-7.3H73.57q-3.23 8.85-3.23 11.72a3.68 3.68 0 0 0 1.61 3.19 7.19 7.19 0 0 0 3.49 1.32q1.42.15 1.42 1.16t-1.54 1q-.6 0-3.15-.19-3.3-.26-4.8-.26a40.31 40.31 0 0 0-5.62.38 7 7 0 0 1-1.12.11q-1.39 0-1.39-1.12a1.08 1.08 0 0 1 .9-1.09 11.08 11.08 0 0 0 3.52-1.57 11.36 11.36 0 0 0 2.75-3.58 59.73 59.73 0 0 0 3.55-8.5q4.61-13.13 13.82-35.47Zm-2.65 13.08-6.51 16.75 13.25-.19q-1-2.94-3.22-8.07-2.35-5.53-3.52-8.49ZM127.22 107.25a15.85 15.85 0 0 1 4.31-5.66 8.7 8.7 0 0 1 5.47-1.88 6.27 6.27 0 0 1 4.55 1.65 5.5 5.5 0 0 1 1.71 4.12 4.82 4.82 0 0 1-1.26 3.32 3.84 3.84 0 0 1-3 1.37 3.42 3.42 0 0 1-2.17-.68 8.17 8.17 0 0 1-1.84-2.4q-1.35-2.47-2.36-2.47-1.39 0-3.15 2.81t-1.76 10.89q0 10.22.69 11.36t3.06 1.14q2.06 0 2.06 1.12t-2 1q-1.12 0-3.26-.2-1.95-.17-3.67-.17-3.71 0-7.35.26-1.54.11-1.8.11-1.57 0-1.57-1.18 0-1 1.84-1.1a3.55 3.55 0 0 0 2.51-.84q.71-.77.71-3.35l.15-9.36q0-2.84-.23-7.07a46.57 46.57 0 0 0-.41-5 2.66 2.66 0 0 0-1-1.44 3.68 3.68 0 0 0-2.08-.75 5.45 5.45 0 0 1-1.71-.36.89.89 0 0 1-.36-.84q0-1 1.88-1 3.45 0 11.73-.9ZM186.4 86.56q.79-1 1.65-2.17 1-1.46 1.69-1.46t1 .38a7.64 7.64 0 0 1 .38 2.32l.75 11.69.07 1.5q0 1.5-1.2 1.5-.79 0-1.27-1.24a33.54 33.54 0 0 0-5.54-8.83 12.51 12.51 0 0 0-10.08-4.85 11.26 11.26 0 0 0-7.56 2.6 17 17 0 0 0-4.77 7.14 30.89 30.89 0 0 0-1.73 10.86q0 10.83 4.76 17.22t11.85 6.39q7.69 0 14.1-9.29.78-1.12 1.49-1.12a1.06 1.06 0 0 1 1.19 1.2q0 2.47-5.9 7.87a21.08 21.08 0 0 1-14.79 5.4q-11.77 0-18.59-7.27a25.15 25.15 0 0 1-6.82-17.88A26.79 26.79 0 0 1 154 90.17a22.23 22.23 0 0 1 17.39-7.78 31.35 31.35 0 0 1 15.01 4.17ZM215.41 129.06a17.91 17.91 0 0 1-4.69 3.32 11.14 11.14 0 0 1-4.76 1.11 7.54 7.54 0 0 1-5.9-2.31 8.09 8.09 0 0 1-2.08-5.61 8.45 8.45 0 0 1 1.25-4.56 9.25 9.25 0 0 1 3.1-3.12 38.34 38.34 0 0 1 6.12-2.65 31.05 31.05 0 0 0 4.81-2 5.91 5.91 0 0 0 2-2.14 7.15 7.15 0 0 0 .82-3.64 5.94 5.94 0 0 0-1.23-3.93 4.19 4.19 0 0 0-3.4-1.47 3.29 3.29 0 0 0-2.65.93 7.14 7.14 0 0 0-1.19 3.1q-.86 4.25-4.61 4.25a4 4 0 0 1-2.62-.9 3.16 3.16 0 0 1-1.09-2.59q0-3.6 3.92-5.38a22.45 22.45 0 0 1 9.35-1.78 17.57 17.57 0 0 1 7.63 1.42 7.34 7.34 0 0 1 3.77 3.3 15.43 15.43 0 0 1 .83 5.85l-.08 8.88a51.49 51.49 0 0 0 .47 9q.47 2 2 2h.6q.75-.07 1-.08 1.54 0 1.54.86a1.13 1.13 0 0 1-.64 1 16.06 16.06 0 0 1-3.84 1 31.81 31.81 0 0 1-5.79.6q-2.59 0-3.54-1a5.4 5.4 0 0 1-1.1-3.46Zm.49-15a15.87 15.87 0 0 1-4.31 2.89 14.29 14.29 0 0 0-4.16 2.93 6 6 0 0 0-1 3.79 6.25 6.25 0 0 0 1.11 4 3.36 3.36 0 0 0 2.66 1.33 5.5 5.5 0 0 0 4-2q1.87-2 1.87-7.08.06-1.57-.17-5.92ZM247.39 105.52a20.57 20.57 0 0 1 5.46-4.37 12 12 0 0 1 5.61-1.44 12.42 12.42 0 0 1 4.28.83 13.11 13.11 0 0 1 4.92 3.86 20.22 20.22 0 0 1 5.54-3.54 15.11 15.11 0 0 1 5.8-1.18q5.13 0 7.53 2.78t2.36 8.33l-.19 12.68q0 5.37.52 6.17t2.83 1.14q1.3.23 1.3 1 0 1.16-1.53 1.16h-.75q-3.14-.29-6.85-.29-2 0-4.86.21c-1.17.08-1.84.13-2 .13q-1.87 0-1.87-1t1.24-1.09a5.82 5.82 0 0 0 2.62-.75q.49-.45.75-3.47t.26-10.19a78.44 78.44 0 0 0-.34-9 6.71 6.71 0 0 0-1.54-3.73 3.92 3.92 0 0 0-3-1.29 5.56 5.56 0 0 0-3.28 1.22 16 16 0 0 0-3.43 3.69 90.78 90.78 0 0 0-1.16 16.7q0 4.62.67 5.6t3.07 1.24q1.42.15 1.42 1 0 1.16-1.8 1.16-.41 0-2.89-.17-3.41-.21-4.83-.21-2.44 0-5.77.29-.86.08-1.31.08-1.65 0-1.65-1.09t1.61-1.09a2.81 2.81 0 0 0 2.7-2.38q.56-2.23.56-15.63 0-5.52-1-7.6a3.3 3.3 0 0 0-3.19-2.08q-3.82 0-6 4t-2.2 15.59q0 5.45.69 6.67a2.94 2.94 0 0 0 2.6 1.33q1.43.08 1.42 1 0 1.2-1.54 1.2a7.49 7.49 0 0 1-1-.12 60.3 60.3 0 0 0-6.67-.25 54.73 54.73 0 0 0-6.48.29c-.6.06-1.05.08-1.35.08q-1.24 0-1.24-1.09t1.39-1.09q2.25-.11 2.77-.79t.79-3.77q.26-3.1.26-11.65 0-6.68-.17-8.37a3.72 3.72 0 0 0-1.24-2.59 4.58 4.58 0 0 0-2.94-.94q-1.54 0-1.54-1t1.54-1q2-.11 5.88-.51t6.75-.39a10.25 10.25 0 0 1 .45 3.6q-.02.55.02 2.12ZM310 102.38a16.59 16.59 0 0 1 4.27-1.89 16.92 16.92 0 0 1 4.57-.62 14.19 14.19 0 0 1 10.79 4.7 16.5 16.5 0 0 1 4.38 11.7 17.16 17.16 0 0 1-2.16 8.56 17.46 17.46 0 0 1-5.94 6.25 15.9 15.9 0 0 1-8.73 2.42 17.14 17.14 0 0 1-5.88-.92 32.49 32.49 0 0 1-6-3.17 1.63 1.63 0 0 0-.75-.3q-.79 0-1.16 1.46-.71 2.51-1.57 2.51a.78.78 0 0 1-.84-.56 35.38 35.38 0 0 1-.17-5l.3-27.19q0-14-.3-15.28t-2.85-1.57q-1.61-.15-1.61-1.09t1.46-1q.82 0 3.56.19 2.06.11 3.6.11l3.75-.11q1.39 0 1.39 1v1.8q.02 15.37-.11 18Zm6.52.3a6.28 6.28 0 0 0-4.2 1.61q-1.87 1.61-2.36 7.65t-.49 9.41q0 5.35 2 7.51a6.12 6.12 0 0 0 4.67 2.15q3.41 0 5.55-3.93a20.79 20.79 0 0 0 2.14-10 24.5 24.5 0 0 0-1.91-10.24q-1.92-4.16-5.38-4.17ZM353.24 99.68q.15 5.25.15 18.7l-.11 8.06q0 2.44.81 3.26a4.51 4.51 0 0 0 2.64 1.09q2.1.26 2.1 1.2t-1.65 1q-.79 0-2.74-.11-4.12-.26-8.17-.26a40.29 40.29 0 0 0-4 .21 15.33 15.33 0 0 1-1.69.17q-1.65 0-1.65-1t2.17-1.16q2.89-.26 3.22-1.93a42.45 42.45 0 0 0 .34-6.77q0-6.6-.21-12.13t-.77-6.31q-.56-.79-2.92-1.05-1.84-.19-1.84-1.09t1.87-1l.79-.08ZM352.71 87a5.41 5.41 0 1 1-1.59-3.82 5.19 5.19 0 0 1 1.59 3.82ZM398.89 115.68a17.92 17.92 0 0 1-18.18 17.62 17.49 17.49 0 0 1-12.22-4.5q-4.95-4.5-4.95-12a15.78 15.78 0 0 1 5.23-12.31 18.35 18.35 0 0 1 12.73-4.7 17.88 17.88 0 0 1 12.5 4.44 14.76 14.76 0 0 1 4.89 11.45Zm-10.35 2.57a29 29 0 0 0-2-11.13q-2-5-5.87-5-3.37 0-5.21 3.47t-1.84 9.74a26.14 26.14 0 0 0 2.08 11.2q2.08 4.37 5.72 4.37a5.74 5.74 0 0 0 5.36-3.49 20.13 20.13 0 0 0 1.76-9.16Z" class="cls-3"/>
</svg>
